<?xml version="1.0" encoding="UTF-8" standalone="no"?>
<!-- Created with Inkscape (http://www.inkscape.org/) -->

<svg
   xmlns:dc="http://purl.org/dc/elements/1.1/"
   xmlns:cc="http://creativecommons.org/ns#"
   xmlns:rdf="http://www.w3.org/1999/02/22-rdf-syntax-ns#"
   xmlns:svg="http://www.w3.org/2000/svg"
   xmlns="http://www.w3.org/2000/svg"
   xmlns:sodipodi="http://sodipodi.sourceforge.net/DTD/sodipodi-0.dtd"
   xmlns:inkscape="http://www.inkscape.org/namespaces/inkscape"
   width="1442.125"
   height="719.28125"
   id="svg2"
   version="1.1"
   inkscape:version="0.48.4 r9939"
   sodipodi:docname="curveEarthSketch_thCut.svg"
   inkscape:export-filename="/home/ppieroni/Radio/Resumen/graficadores/curveEarthSketch.png"
   inkscape:export-xdpi="150"
   inkscape:export-ydpi="150">
  <sodipodi:namedview
     id="base"
     pagecolor="#ffffff"
     bordercolor="#666666"
     borderopacity="1.0"
     inkscape:pageopacity="0.0"
     inkscape:pageshadow="2"
     inkscape:zoom="0.7"
     inkscape:cx="850.96701"
     inkscape:cy="453.69019"
     inkscape:document-units="px"
     inkscape:current-layer="layer1"
     showgrid="true"
     fit-margin-top="0"
     fit-margin-left="0"
     fit-margin-right="0"
     fit-margin-bottom="0"
     inkscape:window-width="1280"
     inkscape:window-height="724"
     inkscape:window-x="0"
     inkscape:window-y="24"
     inkscape:window-maximized="1"
     inkscape:snap-bbox="true"
     inkscape:snap-bbox-edge-midpoints="true"
     inkscape:bbox-nodes="true"
     inkscape:bbox-paths="true"
     inkscape:snap-bbox-midpoints="true"
     inkscape:object-paths="true"
     inkscape:object-nodes="true"
     inkscape:snap-intersection-paths="true"
     inkscape:snap-smooth-nodes="true"
     inkscape:snap-midpoints="true"
     inkscape:snap-center="true"
     inkscape:snap-grids="true"
     objecttolerance="20"
     gridtolerance="10"
     inkscape:snap-global="false"
     inkscape:snap-nodes="true">
    <inkscape:grid
       spacingy="10px"
       spacingx="10px"
       snapvisiblegridlinesonly="true"
       enabled="true"
       visible="true"
       empspacing="10"
       id="grid3784"
       type="xygrid"
       originx="-277.15625px"
       originy="-697.15625px" />
  </sodipodi:namedview>
  <defs
     id="defs4">
    <marker
       inkscape:stockid="Arrow1Lend"
       orient="auto"
       refY="0.0"
       refX="0.0"
       id="Arrow1Lend"
       style="overflow:visible;">
      <path
         id="path4204"
         d="M 0.0,0.0 L 5.0,-5.0 L -12.5,0.0 L 5.0,5.0 L 0.0,0.0 z "
         style="fill-rule:evenodd;stroke:#000000;stroke-width:1.0pt;"
         transform="scale(0.8) rotate(180) translate(12.5,0)" />
    </marker>
    <marker
       inkscape:stockid="Arrow2Mend"
       orient="auto"
       refY="0.0"
       refX="0.0"
       id="Arrow2Mend"
       style="overflow:visible;">
      <path
         id="path4228"
         style="fill-rule:evenodd;stroke-width:0.62500000;stroke-linejoin:round;"
         d="M 8.7185878,4.0337352 L -2.2072895,0.016013256 L 8.7185884,-4.0017078 C 6.9730900,-1.6296469 6.9831476,1.6157441 8.7185878,4.0337352 z "
         transform="scale(0.6) rotate(180) translate(0,0)" />
    </marker>
  </defs>
  <metadata
     id="metadata7">
    <rdf:RDF>
      <cc:Work
         rdf:about="">
        <dc:format>image/svg+xml</dc:format>
        <dc:type
           rdf:resource="http://purl.org/dc/dcmitype/StillImage" />
        <dc:title />
      </cc:Work>
    </rdf:RDF>
  </metadata>
  <g
     transform="translate(-103.21875,78.71875)"
     id="layer1"
     inkscape:groupmode="layer"
     inkscape:label="Layer 1">
    <path
       sodipodi:open="true"
       transform="matrix(5.1115927,0,0,5.1115927,653.64648,-526.4901)"
       sodipodi:end="4.9741884"
       sodipodi:start="4.1887902"
       d="M -69.285714,187.5921 C -3.9897715,149.89347 73.607543,139.67759 146.4357,159.19184"
       sodipodi:ry="284.28571"
       sodipodi:rx="284.28571"
       sodipodi:cy="433.79074"
       sodipodi:cx="72.85714"
       id="path2985"
       style="opacity:0.8;color:#000000;fill:none;stroke:#000000;stroke-width:0.97816873;stroke-linecap:round;stroke-linejoin:round;stroke-miterlimit:4;stroke-opacity:1;stroke-dasharray:none;stroke-dashoffset:0;marker:none;visibility:visible;display:inline;overflow:visible;enable-background:accumulate"
       sodipodi:type="arc" />
    <rect
       y="-76.209244"
       x="105.71429"
       height="714.28577"
       width="1437.1429"
       id="rect3755"
       style="opacity:0.8;color:#000000;fill:none;stroke:#000000;stroke-width:5;stroke-linecap:round;stroke-linejoin:round;stroke-miterlimit:4;stroke-opacity:1;stroke-dasharray:none;stroke-dashoffset:0;marker:none;visibility:visible;display:inline;overflow:visible;enable-background:accumulate" />
    <path
       sodipodi:nodetypes="cc"
       transform="translate(-173.9375,-78.71875)"
       inkscape:connector-curvature="0"
       id="path3786"
       d="m 1200,116.4375 c 0,-48.48732 0,464.28571 0,464.28571"
       style="fill:none;stroke:#0028ff;stroke-width:3;stroke-linecap:butt;stroke-linejoin:miter;stroke-miterlimit:4;stroke-opacity:1;stroke-dasharray:none" />
    <path
       inkscape:transform-center-y="-1275.2779"
       inkscape:transform-center-x="312.68691"
       style="fill:none;stroke:#0028ff;stroke-width:3;stroke-linecap:butt;stroke-linejoin:miter;stroke-miterlimit:4;stroke-opacity:1;stroke-dasharray:none"
       d="M 632.74021,85.742515 735.87334,507.62403"
       id="path3788"
       inkscape:connector-curvature="0"
       sodipodi:nodetypes="cc" />
    <path
       sodipodi:type="arc"
       style="opacity:0.8;color:#000000;fill:none;stroke:#000000;stroke-width:0.97816873;stroke-linecap:round;stroke-linejoin:round;stroke-miterlimit:4;stroke-opacity:1;stroke-dasharray:none;stroke-dashoffset:0;marker:none;visibility:visible;display:inline;overflow:visible;enable-background:accumulate"
       id="path3792"
       sodipodi:cx="72.85714"
       sodipodi:cy="433.79074"
       sodipodi:rx="284.28571"
       sodipodi:ry="284.28571"
       d="M -128.16321,232.77039 C -56.345558,160.95274 48.330959,132.90475 146.4357,159.19184"
       sodipodi:start="3.9269908"
       sodipodi:end="4.9741884"
       transform="matrix(5.1115927,0,0,5.1115927,-1326.3535,-526.4901)"
       sodipodi:open="true" />
    <path
       style="fill:none;stroke:#0028ff;stroke-width:5;stroke-linecap:butt;stroke-linejoin:miter;stroke-miterlimit:4;stroke-opacity:1;stroke-dasharray:none"
       d="m -953.9375,-162.28125 0,900"
       id="path3794"
       inkscape:connector-curvature="0"
       sodipodi:nodetypes="cc" />
    <path
       sodipodi:nodetypes="cc"
       inkscape:connector-curvature="0"
       id="path3796"
       d="m -1749.2956,242.23526 326.5191,595.48349"
       style="fill:none;stroke:#0028ff;stroke-width:5;stroke-linecap:butt;stroke-linejoin:miter;stroke-miterlimit:4;stroke-opacity:1;stroke-dasharray:none"
       inkscape:transform-center-x="-301.85594"
       inkscape:transform-center-y="549.94812" />
    <path
       inkscape:transform-center-y="-184.71309"
       inkscape:transform-center-x="-338.51955"
       style="fill:none;stroke:#0028ff;stroke-width:5;stroke-linecap:butt;stroke-linejoin:miter;stroke-miterlimit:4;stroke-opacity:1;stroke-dasharray:none"
       d="M -1828.5636,512.61312 -805.31,-48.463513"
       id="path3798"
       inkscape:connector-curvature="0"
       sodipodi:nodetypes="cc" />
    <path
       sodipodi:nodetypes="ccccc"
       inkscape:connector-curvature="0"
       id="rect3800"
       d="m 1100,312.4375 200,0 0,9.99999 -200,0 z"
       style="color:#000000;fill:#ff0000;fill-opacity:1;stroke:#000000;stroke-width:2;stroke-linecap:round;stroke-linejoin:round;stroke-miterlimit:4;stroke-opacity:1;stroke-dashoffset:0;marker:none;visibility:visible;display:inline;overflow:visible;enable-background:accumulate"
       transform="translate(-173.9375,-78.71875)" />
    <path
       sodipodi:end="4.7167685"
       sodipodi:start="2.9058725"
       transform="translate(-3.9375,-16.650691)"
       d="m 1005.8618,217.23514 c -3.202,-13.33116 5.0094,-26.7339 18.3406,-29.93585 1.9341,-0.46456 3.9171,-0.69496 5.9063,-0.68625 L 1030,211.4375 z"
       sodipodi:ry="24.824699"
       sodipodi:rx="24.824699"
       sodipodi:cy="211.4375"
       sodipodi:cx="1030"
       id="path3809"
       style="color:#000000;fill:none;stroke:#0028ff;stroke-width:2;stroke-linecap:round;stroke-linejoin:round;stroke-miterlimit:4;stroke-opacity:1;stroke-dasharray:none;stroke-dashoffset:0;marker:none;visibility:visible;display:inline;overflow:visible;enable-background:accumulate"
       sodipodi:type="arc" />
    <path
       sodipodi:nodetypes="cc"
       inkscape:connector-curvature="0"
       id="path3022"
       d="M 1172.1893,159.06466 451.32318,335.28755"
       style="fill:none;stroke:#0028ff;stroke-width:3;stroke-linecap:butt;stroke-linejoin:miter;stroke-miterlimit:4;stroke-opacity:1;stroke-dasharray:none"
       inkscape:transform-center-x="17.502564"
       inkscape:transform-center-y="4.5402745" />
    <path
       transform="translate(103.21875,-78.71875)"
       inkscape:connector-curvature="0"
       id="path3024"
       d="m 576.88694,358.21685 -24.14625,5.76408 -6.66055,-24.85753 24.53228,-6.5734"
       style="fill:none;stroke:#0028ff;stroke-width:2;stroke-linecap:butt;stroke-linejoin:miter;stroke-opacity:1;stroke-miterlimit:4;stroke-dasharray:none" />
    <g
       style="font-style:normal;font-variant:normal;font-weight:normal;font-stretch:normal;letter-spacing:normal;word-spacing:normal;text-anchor:start;fill:none;stroke:#000000;stroke-linecap:butt;stroke-linejoin:miter;stroke-miterlimit:10.43299961;stroke-opacity:1;stroke-dasharray:none;stroke-dashoffset:0"
       id="g3964"
       transform="matrix(1.0275446,0,0,-1.0275446,572.50388,637.75958)"
       xml:space="preserve"
       stroke-miterlimit="10.433"
       font-style="normal"
       font-variant="normal"
       font-weight="normal"
       font-stretch="normal"
       font-size-adjust="none"
       letter-spacing="normal"
       word-spacing="normal"><path
         style="fill:#000000;stroke-width:0"
         inkscape:connector-curvature="0"
         d="m 469.82,417.9 0.28,0.36 0.29,0.37 0.3,0.38 0.31,0.39 0.61,0.78 0.31,0.38 0.3,0.39 0.3,0.37 0.3,0.37 0.29,0.35 0.28,0.34 0.14,0.16 0.13,0.16 0.13,0.16 0.13,0.15 0.12,0.14 0.12,0.14 0.12,0.13 0.11,0.12 c 1.55,1.78 3.6,2.53 5.94,2.58 v 1.55 c -1.29,-0.1 -2.79,-0.14 -4.09,-0.14 -1.49,0 -4.13,0.09 -4.78,0.14 v -1.55 c 1.04,-0.09 1.45,-0.73 1.45,-1.53 0,-0.8 -0.5,-1.45 -0.75,-1.75 l -3.09,-3.89 -3.88,5.03 c -0.45,0.5 -0.45,0.61 -0.45,0.91 0,0.75 0.75,1.18 1.73,1.23 v 1.55 c -1.28,-0.05 -4.58,-0.14 -5.37,-0.14 -1.05,0 -3.39,0.04 -4.74,0.14 v -1.55 c 3.49,0 3.55,-0.05 5.88,-3.03 l 4.94,-6.42 -4.69,-5.94 c -2.39,-2.89 -5.33,-2.98 -6.38,-2.98 v -1.55 c 1.3,0.09 2.85,0.16 4.14,0.16 1.44,0 3.54,-0.11 4.74,-0.16 v 1.55 c -1.1,0.14 -1.45,0.79 -1.45,1.54 0,1.1 1.45,2.74 4.48,6.33 l 3.8,-4.98 c 0.39,-0.55 1.04,-1.35 1.04,-1.64 0,-0.46 -0.45,-1.21 -1.79,-1.25 v -1.55 c 1.48,0.05 4.28,0.16 5.37,0.16 1.35,0 3.3,-0.07 4.78,-0.16 v 1.55 c -2.68,0 -3.58,0.09 -4.73,1.54 z"
         id="path3966" /><path
         style="fill:#000000;stroke-width:0"
         inkscape:connector-curvature="0"
         d="m 494.21,422.56 v -1.25 c 2.33,0 2.61,-0.25 2.61,-1.95 v -7.22 c -1.28,1.26 -2.96,1.98 -4.88,1.98 l 0.17,-0.97 c 1.68,0 3.18,-0.76 4.14,-2.01 0.43,-0.57 0.43,-0.6 0.43,-1.27 v -7.45 c -0.91,-1.64 -2.68,-3.03 -4.94,-3.03 -1.95,0 -3.36,1.15 -4.05,2.15 -0.7,1.05 -1.11,2.46 -1.11,4.67 0,0.82 0,3.43 1.42,5.07 1.39,1.56 3.1,1.87 4.11,1.87 l -0.17,0.97 c -4.64,0 -8.53,-3.48 -8.53,-7.87 0,-4.35 3.69,-7.83 8.11,-7.83 2.86,0 4.56,1.53 5.16,2.15 v -2.15 l 5.37,0.34 v 1.25 c -2.34,0 -2.62,0.25 -2.62,1.95 v 20.99 z"
         id="path3968" /></g>    <g
       transform="translate(633.59448,-519.94097)"
       id="g4044">
      <g
         style="font-style:normal;font-variant:normal;font-weight:normal;font-stretch:normal;letter-spacing:normal;word-spacing:normal;text-anchor:start;fill:none;stroke:#000000;stroke-linecap:butt;stroke-linejoin:miter;stroke-miterlimit:10.43299961;stroke-opacity:1;stroke-dasharray:none;stroke-dashoffset:0"
         id="g4046"
         transform="matrix(1.0275446,0,0,-1.0275446,-179.82031,1081.5938)"
         xml:space="preserve"
         stroke-miterlimit="10.433"
         font-style="normal"
         font-variant="normal"
         font-weight="normal"
         font-stretch="normal"
         font-size-adjust="none"
         letter-spacing="normal"
         word-spacing="normal"><path
           style="fill:#000000;stroke-width:0"
           inkscape:connector-curvature="0"
           d="m 478.19,431.11 0,0.31 -0.01,0.34 -0.02,0.36 -0.02,0.37 -0.03,0.39 -0.04,0.39 -0.04,0.41 -0.06,0.41 -0.07,0.42 -0.07,0.43 -0.09,0.42 -0.1,0.43 -0.12,0.42 -0.12,0.42 -0.14,0.41 -0.16,0.41 -0.17,0.4 -0.18,0.38 -0.2,0.37 -0.22,0.36 -0.23,0.34 -0.25,0.32 -0.28,0.3 -0.29,0.27 -0.31,0.25 -0.16,0.12 -0.17,0.1 -0.17,0.1 -0.18,0.1 -0.18,0.08 -0.19,0.08 -0.19,0.07 -0.2,0.06 -0.21,0.05 -0.21,0.05 -0.22,0.03 -0.22,0.02 -0.23,0.02 -0.23,0 -0.05,-1.09 c 2.44,0 2.73,-3.19 2.73,-6.03 0,-2.44 -0.39,-4.99 -1.59,-9.92 h -10.41 c 0.85,3.2 1.85,7.18 3.83,10.72 1.36,2.43 3.19,5.23 5.44,5.23 l 0.05,1.09 c -6.92,0 -14.6,-14.04 -14.6,-25.45 0,-4.69 1.44,-10.22 5.99,-10.22 v 1.1 c -1.66,0 -2.71,1.45 -2.71,6.07 0,2.1 0.3,4.99 1.6,9.86 h 10.37 c -0.54,-2.28 -1.59,-6.51 -3.5,-10.11 -1.73,-3.39 -3.62,-5.82 -5.76,-5.82 v -1.1 c 7.01,0 14.59,14.3 14.59,25.46 z"
           id="path4048" /><path
           style="fill:#000000;stroke-width:0"
           inkscape:connector-curvature="0"
           d="m 495.62,437.54 -0.11,-0.02 -0.11,-0.02 -0.11,-0.03 -0.11,-0.04 -0.09,-0.04 -0.1,-0.04 -0.09,-0.04 -0.09,-0.05 -0.08,-0.05 -0.08,-0.06 -0.07,-0.05 -0.07,-0.06 -0.07,-0.06 -0.07,-0.07 -0.05,-0.06 -0.06,-0.07 -0.05,-0.07 -0.05,-0.07 -0.05,-0.08 -0.04,-0.07 -0.03,-0.07 -0.04,-0.08 -0.03,-0.07 -0.03,-0.08 -0.02,-0.08 -0.02,-0.07 -0.02,-0.08 -0.01,-0.07 -0.01,-0.08 -0.01,-0.07 0,-0.08 -0.01,-0.07 c 0,-0.94 0.74,-1.28 1.36,-1.28 0.77,0 1.99,0.55 1.99,2.22 0,2.37 -2.72,3.03 -4.6,3.03 -5.23,0 -10.07,-4.8 -10.07,-9.64 0,-3 2.09,-6.06 6.45,-6.06 5.89,0 8.64,3.43 8.64,3.93 0,0.21 -0.31,0.6 -0.59,0.6 -0.21,0 -0.29,-0.08 -0.57,-0.36 -2.72,-3.21 -6.79,-3.21 -7.42,-3.21 -2.5,0 -3.62,1.71 -3.62,3.88 0,1 0.5,4.8 2.31,7.2 1.31,1.72 3.12,2.69 4.87,2.69 0.49,0 2.16,-0.06 3.03,-1.05 z"
           id="path4050" /><path
           style="fill:#000000;stroke-width:0"
           inkscape:connector-curvature="0"
           d="m 512.85,429.84 -0.01,-0.07 -0.02,-0.07 -0.02,-0.07 -0.02,-0.07 -0.02,-0.08 -0.02,-0.08 -0.02,-0.08 -0.02,-0.09 -0.04,-0.16 -0.04,-0.17 -0.04,-0.17 -0.02,-0.08 -0.02,-0.08 -0.02,-0.08 -0.02,-0.07 -0.02,-0.08 -0.02,-0.07 -0.02,-0.06 -0.02,-0.07 -0.01,-0.06 -0.02,-0.05 -0.01,-0.05 -0.02,-0.05 -0.01,-0.03 -0.01,-0.04 -0.01,-0.01 0,-0.02 -0.01,-0.01 0,-0.01 0,0 -0.01,-0.01 0,0 -0.01,-0.01 c -0.67,-1.08 -2.06,-2.97 -4.21,-2.97 -2.41,0 -2.41,2.27 -2.41,2.89 0,2.07 0.97,4.54 1.95,7.08 0.28,0.71 0.49,1.22 0.49,1.78 0,1.82 -1.53,2.99 -3.32,2.99 -3.48,0 -5.04,-4.77 -5.04,-5.33 0,-0.45 0.48,-0.45 0.59,-0.45 0.49,0 0.52,0.17 0.63,0.56 0.82,2.86 2.37,4.25 3.72,4.25 0.59,0 0.87,-0.39 0.87,-1.22 0,-0.8 -0.28,-1.53 -0.62,-2.33 -1.88,-4.81 -1.88,-5.83 -1.88,-6.76 0,-0.6 0,-2.21 1.28,-3.32 1.02,-0.82 2.38,-1.1 3.6,-1.1 2.18,0 3.37,1.18 4.53,2.29 0.76,-2.23 3.09,-2.29 3.51,-2.29 1.19,0 2.1,0.68 2.75,1.84 0.77,1.36 1.25,3.37 1.25,3.48 0,0.46 -0.48,0.46 -0.58,0.46 -0.5,0 -0.53,-0.14 -0.78,-1.08 -0.4,-1.64 -1.08,-3.74 -2.53,-3.74 -0.9,0 -1.15,0.8 -1.15,1.71 0,0.59 0.28,1.86 0.53,2.76 0.23,0.94 0.57,2.36 0.76,3.13 l 0.8,3.11 c 0.2,0.87 0.59,2.4 0.59,2.58 0,0.68 -0.56,1.1 -1.15,1.1 -1.28,0 -1.53,-1.01 -1.82,-2.12 z"
           id="path4052" /><path
           style="fill:#000000;stroke-width:0"
           inkscape:connector-curvature="0"
           d="m 530.22,437.96 h 3.54 c 0.66,0 1.11,0 1.11,0.77 0,0.48 -0.45,0.48 -1.03,0.48 h -3.31 l 1.28,5.16 c 0.03,0.17 0.11,0.34 0.11,0.49 0,0.64 -0.49,1.12 -1.19,1.12 -0.88,0 -1.39,-0.59 -1.64,-1.5 -0.24,-0.87 0.22,0.8 -1.33,-5.27 h -3.54 c -0.66,0 -1.12,0 -1.12,-0.76 0,-0.49 0.41,-0.49 1.05,-0.49 h 3.3 l -2.05,-8.21 c -0.22,-0.88 -0.53,-2.13 -0.53,-2.58 0,-2.06 1.75,-3.31 3.73,-3.31 3.88,0 6.07,4.87 6.07,5.32 0,0.46 -0.45,0.46 -0.57,0.46 -0.4,0 -0.45,-0.08 -0.71,-0.66 -0.99,-2.2 -2.77,-4.16 -4.67,-4.16 -0.74,0 -1.22,0.46 -1.22,1.71 0,0.36 0.14,1.09 0.2,1.43 z"
           id="path4054" /><path
           style="fill:#000000;stroke-width:0"
           inkscape:connector-curvature="0"
           d="m 480.94,416.2 v -1.25 h 0.84 c 2.69,0 2.75,-0.35 2.75,-1.58 v -18.14 c 0,-1.19 -0.06,-1.58 -2.75,-1.58 h -0.84 v -1.25 h 13.73 l -0.94,1.25 h -4.35 c -1.65,0 -1.68,0.28 -1.68,1.36 v 18.58 c 0,1.07 0.03,1.36 1.68,1.36 h 4.32 c 2.96,0 5.53,-1.22 7.14,-3.29 1.43,-1.87 1.99,-4.53 1.99,-7.56 0,-4.03 -1.02,-6.12 -2.24,-7.59 -1.56,-1.78 -4.07,-2.86 -6.86,-2.86 l 0.94,-1.25 c 6.41,0 11.75,5.15 11.75,11.7 0,6.63 -5.26,12.1 -11.75,12.1 z"
           id="path4056" /></g>    </g>
    <g
       id="g4134"
       transform="translate(162.29778,-419.68409)">
      <g
         word-spacing="normal"
         letter-spacing="normal"
         font-size-adjust="none"
         font-stretch="normal"
         font-weight="normal"
         font-variant="normal"
         font-style="normal"
         stroke-miterlimit="10.433"
         xml:space="preserve"
         transform="matrix(1.0275446,0,0,-1.0275446,-179.82031,1081.5938)"
         id="content"
         style="font-style:normal;font-variant:normal;font-weight:normal;font-stretch:normal;letter-spacing:normal;word-spacing:normal;text-anchor:start;fill:none;stroke:#000000;stroke-linecap:butt;stroke-linejoin:miter;stroke-miterlimit:10.43299961;stroke-opacity:1;stroke-dasharray:none;stroke-dashoffset:0"><path
           id="path4137"
           d="m 478.19,431.11 0,0.31 -0.01,0.34 -0.02,0.36 -0.02,0.37 -0.03,0.39 -0.04,0.39 -0.04,0.41 -0.06,0.41 -0.07,0.42 -0.07,0.43 -0.09,0.42 -0.1,0.43 -0.12,0.42 -0.12,0.42 -0.14,0.41 -0.16,0.41 -0.17,0.4 -0.18,0.38 -0.2,0.37 -0.22,0.36 -0.23,0.34 -0.25,0.32 -0.28,0.3 -0.29,0.27 -0.31,0.25 -0.16,0.12 -0.17,0.1 -0.17,0.1 -0.18,0.1 -0.18,0.08 -0.19,0.08 -0.19,0.07 -0.2,0.06 -0.21,0.05 -0.21,0.05 -0.22,0.03 -0.22,0.02 -0.23,0.02 -0.23,0 -0.05,-1.09 c 2.44,0 2.73,-3.19 2.73,-6.03 0,-2.44 -0.39,-4.99 -1.59,-9.92 h -10.41 c 0.85,3.2 1.85,7.18 3.83,10.72 1.36,2.43 3.19,5.23 5.44,5.23 l 0.05,1.09 c -6.92,0 -14.6,-14.04 -14.6,-25.45 0,-4.69 1.44,-10.22 5.99,-10.22 v 1.1 c -1.66,0 -2.71,1.45 -2.71,6.07 0,2.1 0.3,4.99 1.6,9.86 h 10.37 c -0.54,-2.28 -1.59,-6.51 -3.5,-10.11 -1.73,-3.39 -3.62,-5.82 -5.76,-5.82 v -1.1 c 7.01,0 14.59,14.3 14.59,25.46 z"
           inkscape:connector-curvature="0"
           style="fill:#000000;stroke-width:0" /><path
           id="path4139"
           d="m 504.28,407.93 h -1.17 c -0.91,-5.26 -1.72,-7.92 -8.16,-7.92 h -5.51 c -1.63,0 -1.67,0.28 -1.67,1.36 v 9.06 h 3.53 c 3.51,0 4.03,-1.04 4.03,-4.07 h 1.19 v 9.4 h -1.19 c 0,-3.03 -0.52,-4.08 -4.03,-4.08 h -3.53 v 8.13 c 0,1.08 0.04,1.36 1.67,1.36 h 5.23 c 5.72,0 6.72,-1.89 7.36,-6.77 h 1.17 l -1.04,8.02 h -21.28 v -1.25 h 0.82 c 2.69,0 2.77,-0.35 2.77,-1.56 v -18.02 c 0,-1.19 -0.08,-1.58 -2.77,-1.58 h -0.82 v -1.25 h 21.84 z"
           inkscape:connector-curvature="0"
           style="fill:#000000;stroke-width:0" /><path
           id="path4141"
           d="m 556.23,422.5 0.14,0 0.15,0 0.14,0 0.08,0.01 0.07,0 0.07,0.01 0.07,0.01 0.07,0.01 0.07,0.01 0.07,0.01 0.07,0.02 0.06,0.02 0.06,0.02 0.06,0.02 0.06,0.03 0.06,0.03 0.05,0.04 0.05,0.03 0.05,0.05 0.04,0.04 0.04,0.05 0.02,0.03 0.02,0.03 0.01,0.02 0.02,0.03 0.01,0.03 0.02,0.04 0.01,0.03 0.01,0.04 0.01,0.03 0.01,0.04 0.01,0.04 0,0.04 0.01,0.04 0,0.04 0,0.04 0,0.05 c 0,1 -0.95,1 -1.64,1 h -29.84 c -0.71,0 -1.64,0 -1.64,-1 0,-0.98 0.93,-0.98 1.68,-0.98 z"
           inkscape:connector-curvature="0"
           style="fill:#000000;stroke-width:0" /><path
           id="path4143"
           d="m 556.28,412.82 0.07,0 0.06,0 0.14,0.01 0.14,0 0.07,0 0.07,0.01 0.07,0.01 0.07,0 0.06,0.01 0.07,0.02 0.07,0.01 0.06,0.02 0.07,0.02 0.06,0.02 0.06,0.02 0.06,0.03 0.05,0.03 0.05,0.04 0.05,0.04 0.05,0.04 0.04,0.05 0.02,0.02 0.02,0.03 0.02,0.02 0.02,0.03 0.01,0.03 0.02,0.03 0.01,0.03 0.02,0.03 0.01,0.04 0.01,0.03 0.01,0.04 0.01,0.04 0.01,0.04 0,0.04 0.01,0.04 0,0.04 0,0.05 0,0.04 c 0,1 -0.95,1 -1.69,1 h -29.75 c -0.75,0 -1.68,0 -1.68,-1 0,-1 0.93,-1 1.64,-1 z"
           inkscape:connector-curvature="0"
           style="fill:#000000;stroke-width:0" /><path
           id="path4145"
           d="m 592.96,422.04 v -1.59 c 0,-11.66 -5.17,-13.95 -8.06,-13.95 -0.86,0 -3.55,0.11 -4.89,1.79 2.19,0 2.59,1.44 2.59,2.3 0,1.53 -1.2,2.28 -2.3,2.28 -0.79,0 -2.28,-0.44 -2.28,-2.39 0,-3.33 2.69,-5.37 6.93,-5.37 6.42,0 12.5,6.76 12.5,17.48 0,13.41 -5.74,16.8 -10.16,16.8 -2.75,0 -5.19,-0.91 -7.33,-3.14 -2.05,-2.25 -3.19,-4.35 -3.19,-8.08 0,-6.22 4.39,-11.11 9.97,-11.11 l 0.05,1.14 c -0.8,0 -3.09,0 -4.64,3.14 -0.89,1.84 -0.89,4.34 -0.89,6.78 0,2.69 0,5.03 1.04,6.88 1.35,2.48 3.24,3.14 4.99,3.14 2.28,0 3.94,-1.71 4.78,-3.94 0.59,-1.59 0.8,-4.74 0.8,-7.03 0,-4.13 -1.71,-8.97 -6.08,-8.97 h 0 l -0.05,-1.14 c 3.03,0 5.08,2.09 6.22,4.98 z"
           inkscape:connector-curvature="0"
           style="fill:#000000;stroke-width:0" /><path
           id="path4147"
           d="m 622.56,422.14 0,0.74 -0.02,0.75 -0.02,0.75 -0.03,0.74 -0.04,0.75 -0.06,0.74 -0.08,0.74 -0.09,0.73 -0.12,0.73 -0.14,0.73 -0.16,0.72 -0.19,0.72 -0.22,0.72 -0.24,0.7 -0.28,0.7 -0.15,0.35 -0.16,0.34 c -2.28,4.8 -6.38,5.6 -8.47,5.6 -2.99,0 -6.62,-1.3 -8.67,-5.94 -1.6,-3.44 -1.85,-7.33 -1.85,-11.31 0,-3.74 0.21,-8.22 2.25,-12 2.15,-4.03 5.78,-5.03 8.22,-5.03 v 1.09 c -1.94,0 -4.89,1.25 -5.78,6.03 -0.54,2.98 -0.54,7.56 -0.54,10.52 0,3.18 0,6.46 0.4,9.15 0.94,5.94 4.67,6.38 5.92,6.38 1.64,0 4.94,-0.89 5.88,-5.83 0.5,-2.78 0.5,-6.58 0.5,-9.7 0,-3.75 0,-7.13 -0.55,-10.32 -0.75,-4.73 -3.59,-6.23 -5.83,-6.23 h 0 v -1.09 c 2.69,0 6.47,1.04 8.68,5.78 1.59,3.43 1.84,7.31 1.84,11.25 z"
           inkscape:connector-curvature="0"
           style="fill:#000000;stroke-width:0" /><path
           id="path4149"
           d="m 642.27,432.92 -0.01,0.39 -0.03,0.38 -0.04,0.38 -0.07,0.38 -0.09,0.36 -0.1,0.36 -0.12,0.35 -0.13,0.34 -0.15,0.33 -0.17,0.33 -0.18,0.31 -0.2,0.3 -0.21,0.3 -0.22,0.28 -0.24,0.27 -0.25,0.26 -0.26,0.24 -0.27,0.24 -0.28,0.22 -0.3,0.2 -0.3,0.19 -0.32,0.18 -0.32,0.17 -0.33,0.14 -0.34,0.14 -0.35,0.11 -0.35,0.1 -0.36,0.08 -0.37,0.07 -0.38,0.04 -0.37,0.03 -0.39,0.01 v -1.7 c 3.28,0 5.78,-2.66 5.78,-5.75 0,-3.25 -2.57,-5.78 -5.78,-5.78 h 0 c -3.26,0 -5.78,2.64 -5.78,5.75 0,3.23 2.58,5.78 5.78,5.78 v 1.7 c -4.17,0 -7.48,-3.37 -7.48,-7.45 0,-4.22 3.37,-7.5 7.48,-7.5 4.19,0 7.5,3.39 7.5,7.47 z"
           inkscape:connector-curvature="0"
           style="fill:#000000;stroke-width:0" /></g>    </g>
  </g>
</svg>
