<?xml version="1.0" encoding="UTF-8" standalone="no"?>
<!-- Created with Inkscape (http://www.inkscape.org/) -->

<svg
   xmlns:dc="http://purl.org/dc/elements/1.1/"
   xmlns:cc="http://creativecommons.org/ns#"
   xmlns:rdf="http://www.w3.org/1999/02/22-rdf-syntax-ns#"
   xmlns:svg="http://www.w3.org/2000/svg"
   xmlns="http://www.w3.org/2000/svg"
   xmlns:sodipodi="http://sodipodi.sourceforge.net/DTD/sodipodi-0.dtd"
   xmlns:inkscape="http://www.inkscape.org/namespaces/inkscape"
   id="svg2"
   version="1.1"
   inkscape:version="0.48.4 r9939"
   width="332.85156"
   height="188.75"
   xml:space="preserve"
   sodipodi:docname="cono.svg"><metadata
     id="metadata8"><rdf:RDF><cc:Work
         rdf:about=""><dc:format>image/svg+xml</dc:format><dc:type
           rdf:resource="http://purl.org/dc/dcmitype/StillImage" /><dc:title></dc:title></cc:Work></rdf:RDF></metadata><defs
     id="defs6"><marker
       inkscape:stockid="Arrow1Mend"
       orient="auto"
       refY="0"
       refX="0"
       id="Arrow1Mend"
       style="overflow:visible"><path
         id="path3853"
         d="M 0,0 5,-5 -12.5,0 5,5 0,0 z"
         style="fill-rule:evenodd;stroke:#000000;stroke-width:1pt"
         transform="matrix(-0.4,0,0,-0.4,-4,0)"
         inkscape:connector-curvature="0" /></marker><clipPath
       clipPathUnits="userSpaceOnUse"
       id="clipPath20"><path
         d="m 38.668,132.036 170.305,0 0,-116.898 -170.305,0 0,116.898 z"
         id="path22"
         inkscape:connector-curvature="0" /></clipPath><clipPath
       clipPathUnits="userSpaceOnUse"
       id="clipPath30"><path
         d="m 38,15 173,0 0,119 -173,0 0,-119 z"
         id="path32"
         inkscape:connector-curvature="0" /></clipPath><clipPath
       clipPathUnits="userSpaceOnUse"
       id="clipPath40"><path
         d="m 38,134 173,0 0,-119 -173,0 0,119 z"
         id="path42"
         inkscape:connector-curvature="0" /></clipPath><clipPath
       clipPathUnits="userSpaceOnUse"
       id="clipPath50"><path
         d="m 38,15 173,0 0,119 -173,0 0,-119 z"
         id="path52"
         inkscape:connector-curvature="0" /></clipPath></defs><sodipodi:namedview
     pagecolor="#ffffff"
     bordercolor="#666666"
     borderopacity="1"
     objecttolerance="10"
     gridtolerance="10"
     guidetolerance="10"
     inkscape:pageopacity="0"
     inkscape:pageshadow="2"
     inkscape:window-width="1280"
     inkscape:window-height="724"
     id="namedview4"
     showgrid="false"
     inkscape:zoom="1.7177941"
     inkscape:cx="104.17263"
     inkscape:cy="89.533238"
     inkscape:window-x="0"
     inkscape:window-y="24"
     inkscape:window-maximized="1"
     inkscape:current-layer="g10"
     fit-margin-top="0"
     fit-margin-left="0"
     fit-margin-right="0"
     fit-margin-bottom="0" /><g
     id="g10"
     inkscape:groupmode="layer"
     inkscape:label="cono"
     transform="matrix(1.25,0,0,-1.25,0,172.73437)"><path
       inkscape:connector-curvature="0"
       id="path14"
       style="fill:#ffffff;fill-opacity:1;fill-rule:nonzero;stroke:#000000;stroke-width:0.80000001;stroke-linecap:round;stroke-linejoin:round;stroke-miterlimit:4;stroke-opacity:1;stroke-dasharray:none"
       d="m 1.844,137.798 262.59,0 c 0.8,0 1.441,-0.641 1.441,-1.442 l 0,-147.315 c 0,-0.797 -0.641,-1.442 -1.441,-1.442 l -262.59,0 c -0.797,0 -1.442,0.645 -1.442,1.442 l 0,147.315 c 0,0.801 0.645,1.442 1.442,1.442 z"
       sodipodi:nodetypes="sssssssss" /><g
       id="g16"><g
         id="g18"
         clip-path="url(#clipPath20)"><g
           id="g24"
           transform="translate(0,-0.800003)"><g
             id="g26"><g
               id="g28"
               clip-path="url(#clipPath30)"><g
                 id="g34" /><g
                 id="g36"><g
                   id="g38"
                   clip-path="url(#clipPath40)"><g
                     id="g44"><g
                       id="g46"><g
                         id="g48"
                         clip-path="url(#clipPath50)"><g
                           id="g54"><path
                             d="m 38.684,15.926 0,117 171,0 0,-117"
                             style="fill:none;stroke:#ffffff;stroke-width:1;stroke-linecap:butt;stroke-linejoin:miter;stroke-miterlimit:10;stroke-opacity:1;stroke-dasharray:none"
                             id="path56"
                             inkscape:connector-curvature="0" /></g></g></g></g></g></g></g></g></g></g></g><path
       inkscape:connector-curvature="0"
       id="path60"
       style="fill:none;stroke:#ca181b;stroke-width:0.56699997;stroke-linecap:butt;stroke-linejoin:miter;stroke-miterlimit:10;stroke-opacity:1;stroke-dasharray:none"
       d="M 38.93,127.012 103.461,15.266" /><path
       inkscape:connector-curvature="0"
       id="path62"
       style="fill:#ca181b;fill-opacity:1;fill-rule:evenodd;stroke:#ca181b;stroke-width:0.2;stroke-linecap:butt;stroke-linejoin:bevel;stroke-miterlimit:10;stroke-opacity:1;stroke-dasharray:none"
       d="m 39.668,125.802 0.02,-0.04 0.054,-0.093 0.113,-0.188 0.153,-0.246 0.187,-0.359 0.266,-0.438 0.281,-0.508 0.324,-0.57 0.36,-0.601 0.34,-0.606 0.359,-0.605 0.34,-0.59 0.32,-0.563 0.305,-0.531 0.301,-0.512 0.265,-0.472 0.246,-0.434 0.246,-0.418 0.227,-0.394 0.227,-0.379 0.207,-0.36 0.211,-0.359 0.207,-0.359 0.187,-0.36 0.207,-0.34 0.207,-0.359 0.211,-0.359 0.227,-0.375 0.453,-0.797 0.246,-0.399 0.265,-0.433 0.247,-0.434 0.281,-0.437 0.285,-0.454 0.285,-0.472 0.301,-0.473 0.301,-0.492 0.304,-0.488 0.321,-0.493 0.34,-0.492 0.324,-0.511 0.34,-0.512 0.339,-0.527 0.36,-0.512 0.379,-0.547 0.375,-0.547 0.285,-0.418 0.301,-0.453 0.324,-0.434 0.32,-0.472 0.34,-0.477 0.34,-0.492 0.359,-0.508 0.379,-0.512 0.379,-0.546 0.399,-0.532 0.414,-0.566 0.394,-0.547 0.438,-0.566 0.418,-0.586 0.433,-0.571 0.434,-0.586 0.437,-0.566 0.434,-0.586 0.433,-0.566 0.438,-0.551 0.434,-0.547 0.414,-0.527 0.418,-0.532 0.394,-0.511 0.399,-0.489 0.398,-0.476 0.379,-0.449 0.375,-0.457 0.359,-0.414 0.34,-0.418 0.344,-0.379 0.34,-0.395 0.867,-0.945 0.418,-0.438 1.265,-1.265 0.418,-0.379 0.395,-0.379 0.418,-0.356 0.394,-0.343 0.399,-0.34 0.398,-0.301 0.375,-0.305 0.379,-0.261 0.36,-0.266 0.343,-0.246 0.336,-0.207 0.325,-0.207 0.32,-0.192 0.301,-0.187 0.57,-0.305 0.262,-0.133 0.265,-0.148 0.34,-0.152 0.359,-0.172 0.344,-0.149 0.36,-0.152 0.336,-0.133 0.359,-0.152 0.359,-0.133 0.36,-0.113 0.34,-0.133 0.363,-0.109 0.32,-0.098 0.34,-0.113 0.301,-0.094 0.304,-0.074 0.282,-0.078 0.265,-0.075 0.266,-0.078 0.246,-0.054 0.301,-0.094 0.32,-0.078 0.61,-0.188 0.3,-0.094 0.285,-0.093 0.282,-0.114 0.246,-0.113 0.246,-0.117 0.207,-0.129 0.172,-0.133 0.168,-0.133 0.117,-0.152 0.109,-0.148 0.078,-0.172 0.055,-0.188 0.059,-0.211 0.019,-0.207 0,-0.246 -0.019,-0.265 -0.02,-0.286 -0.039,-0.3 -0.055,-0.301 -0.078,-0.305 -0.074,-0.32 -0.074,-0.301 -0.078,-0.305 -0.074,-0.32 -0.075,-0.246 -0.078,-0.266 -0.055,-0.261 -0.078,-0.286 -0.074,-0.304 -0.074,-0.321 -0.078,-0.32 -0.074,-0.359 -0.075,-0.34 -0.078,-0.379 -0.054,-0.359 -0.079,-0.379 -0.054,-0.379 -0.039,-0.379 -0.059,-0.375 -0.035,-0.379 -0.039,-0.379 -0.016,-0.398 -0.019,-0.282 -0.02,-0.304 0,-1.36 0.02,-0.379 0.019,-0.394 0.035,-0.438 0.039,-0.433 0.055,-0.453 0.059,-0.477 0.074,-0.469 0.074,-0.511 0.098,-0.512 0.094,-0.512 0.113,-0.527 0.133,-0.547 0.132,-0.551 0.133,-0.547 0.149,-0.566 0.172,-0.566 0.168,-0.586 0.191,-0.61 0.152,-0.453 0.149,-0.473 0.172,-0.488 0.168,-0.492 0.191,-0.531 0.188,-0.528 0.21,-0.55 0.207,-0.567 0.227,-0.566 0.227,-0.606 0.492,-1.211 0.246,-0.625 0.242,-0.64 0.266,-0.645 0.265,-0.621 0.266,-0.644 0.281,-0.645 0.266,-0.621 0.265,-0.645 0.532,-1.211 0.261,-0.605 0.266,-0.586 0.246,-0.566 0.246,-0.547 0.246,-0.531 0.246,-0.528 0.68,-1.476 0.227,-0.453 0.265,-0.567 0.266,-0.551 0.262,-0.527 0.265,-0.527 0.246,-0.532 0.266,-0.511 0.262,-0.528 0.531,-1.023 0.266,-0.488 0.265,-0.512 0.266,-0.492 0.262,-0.473 0.246,-0.473 0.265,-0.472 0.492,-0.907 0.247,-0.417 0.246,-0.438 0.226,-0.395 0.227,-0.398 0.226,-0.394 0.207,-0.379 0.227,-0.379 0.211,-0.379 0.207,-0.36 0.226,-0.394 0.247,-0.418 0.226,-0.414 0.262,-0.418 0.25,-0.453 0.281,-0.473 0.285,-0.492 0.301,-0.547 0.34,-0.566 0.34,-0.606 0.359,-0.625 0.793,-1.363 0.398,-0.68 0.379,-0.66 0.36,-0.644 0.34,-0.567 0.285,-0.512 0.226,-0.394 0.168,-0.285 0.114,-0.207 0.078,-0.094 0.015,-0.059" /><path
       inkscape:connector-curvature="0"
       id="path64"
       style="fill:#ca181b;fill-opacity:1;fill-rule:evenodd;stroke:#ca181b;stroke-width:0.2;stroke-linecap:butt;stroke-linejoin:bevel;stroke-miterlimit:10;stroke-opacity:1;stroke-dasharray:none"
       d="m 39.668,125.802 0.02,-0.04 0.054,-0.093 0.113,-0.188 0.153,-0.246 0.187,-0.359 0.266,-0.438 0.281,-0.508 0.324,-0.57 0.36,-0.601 0.34,-0.606 0.359,-0.605 0.34,-0.59 0.32,-0.563 0.305,-0.531 0.301,-0.512 0.265,-0.472 0.246,-0.434 0.246,-0.418 0.227,-0.394 0.227,-0.379 0.207,-0.36 0.211,-0.359 0.207,-0.359 0.187,-0.36 0.207,-0.34 0.207,-0.359 0.211,-0.379 0.227,-0.379 0.207,-0.375 0.226,-0.398 0.227,-0.414 0.246,-0.438 0.492,-0.906 0.266,-0.473 0.246,-0.472 0.265,-0.512 0.262,-0.492 0.266,-0.528 0.285,-0.511 0.266,-0.547 0.261,-0.532 0.285,-0.546 0.266,-0.567 0.281,-0.57 0.285,-0.586 0.286,-0.602 0.226,-0.476 0.227,-0.473 0.226,-0.488 0.246,-0.512 0.243,-0.551 0.492,-1.093 0.265,-0.586 0.266,-0.606 0.281,-0.605 0.285,-0.645 0.266,-0.621 0.281,-0.664 0.285,-0.641 0.286,-0.664 0.281,-0.679 0.285,-0.66 0.281,-0.665 0.266,-0.66 0.266,-0.644 0.265,-0.641 0.246,-0.644 0.242,-0.621 0.25,-0.61 0.227,-0.586 0.414,-1.133 0.191,-0.527 0.188,-0.531 0.187,-0.512 0.172,-0.492 0.153,-0.469 0.207,-0.625 0.187,-0.609 0.172,-0.586 0.172,-0.582 0.148,-0.567 0.133,-0.57 0.133,-0.547 0.113,-0.547 0.114,-0.531 0.093,-0.531 0.094,-0.508 0.078,-0.492 0.055,-0.473 0.058,-0.453 0.036,-0.453 0.039,-0.418 0.019,-0.395 0.02,-0.398 0.019,-0.359 0,-0.68 -0.019,-0.305 -0.02,-0.32 0,-0.285 -0.039,-0.395 -0.039,-0.379 -0.035,-0.379 -0.039,-0.378 -0.055,-0.379 -0.058,-0.36 -0.055,-0.375 -0.078,-0.379 -0.055,-0.359 -0.074,-0.359 -0.078,-0.34 -0.074,-0.34 -0.079,-0.305 -0.074,-0.301 -0.074,-0.285 -0.078,-0.261 -0.055,-0.266 -0.074,-0.246 -0.078,-0.324 -0.094,-0.301 -0.078,-0.32 -0.074,-0.305 -0.059,-0.301 -0.055,-0.32 -0.039,-0.285 -0.035,-0.286 -0.019,-0.265 0.019,-0.242 0.02,-0.227 0.035,-0.211 0.058,-0.187 0.094,-0.172 0.094,-0.149 0.133,-0.152 0.152,-0.133 0.188,-0.133 0.207,-0.132 0.492,-0.227 0.285,-0.113 0.301,-0.094 0.285,-0.094 0.32,-0.094 0.305,-0.097 0.301,-0.074 0.32,-0.094 0.246,-0.059 0.531,-0.148 0.286,-0.078 0.3,-0.094 0.645,-0.188 0.34,-0.117 0.34,-0.113 0.359,-0.113 0.34,-0.129 0.719,-0.266 0.359,-0.152 0.34,-0.149 0.359,-0.152 0.34,-0.152 0.359,-0.172 0.246,-0.133 0.282,-0.148 0.265,-0.153 0.301,-0.152 0.285,-0.188 0.321,-0.191 0.324,-0.188 0.679,-0.453 0.719,-0.531 0.379,-0.281 0.375,-0.305 0.399,-0.32 0.796,-0.68 0.415,-0.379 0.398,-0.359 0.394,-0.399 0.418,-0.394 0.414,-0.418 0.399,-0.414 0.418,-0.457 0.433,-0.453 0.321,-0.356 0.32,-0.379 0.34,-0.379 0.719,-0.832 0.359,-0.437 0.758,-0.906 0.379,-0.493 0.414,-0.488 0.398,-0.512 0.414,-0.511 0.418,-0.528 0.414,-0.55 0.418,-0.547 0.414,-0.551 0.418,-0.547 0.434,-0.547 0.398,-0.551 0.414,-0.546 0.399,-0.547 0.394,-0.532 0.379,-0.507 0.379,-0.532 0.719,-0.984 0.34,-0.492 0.34,-0.453 0.324,-0.473 0.605,-0.871 0.301,-0.414 0.34,-0.512 0.34,-0.508 0.34,-0.492 0.324,-0.492 0.641,-0.984 0.324,-0.473 0.301,-0.492 0.32,-0.473 0.305,-0.492 0.3,-0.469 0.285,-0.476 0.301,-0.473 0.285,-0.453 0.262,-0.453 0.266,-0.453 0.265,-0.434 0.266,-0.418 0.246,-0.418 0.227,-0.414 0.246,-0.395 0.207,-0.378 0.453,-0.758 0.211,-0.379 0.207,-0.36 0.226,-0.394 0.247,-0.418 0.226,-0.414 0.262,-0.418 0.25,-0.453 0.281,-0.473 0.285,-0.492 0.301,-0.547 0.34,-0.566 0.34,-0.606 0.359,-0.625 0.793,-1.363 0.398,-0.68 0.379,-0.66 0.36,-0.644 0.34,-0.567 0.285,-0.512 0.226,-0.394 0.168,-0.285 0.114,-0.207 0.078,-0.094 0.015,-0.059" /><text
       id="text66"
       transform="matrix(0.5000085,-0.86602049,-0.86602049,-0.5000085,0,0)"
       x="-89.096497"
       y="-101.49657"
       style="font-size:12px"><tspan
         id="tspan68"
         sodipodi:role="line"
         style="font-size:9.92563152px;font-variant:normal;font-weight:normal;writing-mode:lr-tb;fill:#ca181b;fill-opacity:1;fill-rule:nonzero;stroke:none;font-family:Times New Roman;-inkscape-font-specification:TimesNewRomanPSMT"
         x="-89.096497"
         y="-101.49657">Lluvia</tspan></text>
<path
       inkscape:connector-curvature="0"
       id="path70"
       style="fill:none;stroke:#000000;stroke-width:0.56699997;stroke-linecap:butt;stroke-linejoin:miter;stroke-miterlimit:10;stroke-opacity:1;stroke-dasharray:none"
       d="m 48.703,15.872 199.823,0"
       sodipodi:nodetypes="cc" /><path
       inkscape:connector-curvature="0"
       id="path72"
       style="fill:none;stroke:#2600f6;stroke-width:0.80000001;stroke-linecap:butt;stroke-linejoin:miter;stroke-miterlimit:4;stroke-opacity:1;stroke-dasharray:2.4, 0.8;stroke-dashoffset:0"
       d="M 71.096584,70.833593 190.0365,15.728271"
       sodipodi:nodetypes="cc" /><g
       id="g3880"
       transform="matrix(0.5129217,0,0,0.5129217,92.980917,7.5282379)"><path
         d="m 190.03,16.532 0,20.477"
         style="fill:none;stroke:#000000;stroke-width:0.80000001;stroke-linecap:butt;stroke-linejoin:miter;stroke-miterlimit:4;stroke-opacity:1;stroke-dasharray:none"
         id="path74"
         inkscape:connector-curvature="0" /><path
         d="m 193.866,36.774 -7.676,0"
         style="fill:none;stroke:#000000;stroke-width:0.80000001;stroke-linecap:butt;stroke-linejoin:miter;stroke-miterlimit:4;stroke-opacity:1;stroke-dasharray:none"
         id="path76"
         inkscape:connector-curvature="0" /><path
         d="m 195.467,33.575 -10.875,0"
         style="fill:none;stroke:#000000;stroke-width:0.80000001;stroke-linecap:butt;stroke-linejoin:miter;stroke-miterlimit:4;stroke-opacity:1;stroke-dasharray:none"
         id="path78"
         inkscape:connector-curvature="0" /><path
         d="m 197.065,30.372 -14.074,0"
         style="fill:none;stroke:#000000;stroke-width:0.80000001;stroke-linecap:butt;stroke-linejoin:miter;stroke-miterlimit:4;stroke-opacity:1;stroke-dasharray:none"
         id="path80"
         inkscape:connector-curvature="0" /></g><path
       inkscape:connector-curvature="0"
       id="path82"
       style="fill:none;stroke:#000000;stroke-width:0.80000001;stroke-linecap:round;stroke-linejoin:round;stroke-miterlimit:4;stroke-opacity:1;stroke-dasharray:none"
       d="m 84.892645,63.269432 c -1.465,-3.25 -2.505645,-4.12036 -5.767073,-5.691931"
       sodipodi:nodetypes="cc" /><path
       inkscape:connector-curvature="0"
       id="path84"
       style="fill:#000000;fill-opacity:1;fill-rule:nonzero;stroke:none"
       d="m 93.504,52.028 0,0.133 -0.004,0.074 -0.004,0.078 -0.004,0.082 -0.008,0.078 -0.004,0.086 -0.011,0.086 -0.016,0.086 -0.012,0.09 -0.015,0.086 -0.02,0.09 -0.023,0.09 -0.024,0.086 -0.027,0.086 -0.031,0.086 -0.035,0.082 -0.036,0.078 -0.042,0.078 -0.043,0.074 -0.047,0.07 -0.051,0.071 -0.055,0.062 -0.125,0.11 -0.031,0.023 -0.035,0.023 -0.035,0.02 -0.036,0.023 -0.156,0.063 -0.043,0.012 -0.047,0.007 -0.043,0.008 -0.046,0.004 -0.047,0.008 -0.047,0 -0.016,-0.227 c 0.504,-0.007 0.555,-0.668 0.547,-1.257 -0.008,-0.504 -0.098,-1.032 -0.363,-2.047 l -2.157,0.035 c 0.188,0.66 0.411,1.48 0.833,2.207 0.289,0.496 0.675,1.07 1.14,1.062 l 0.016,0.227 c -1.434,0.023 -3.071,-2.856 -3.11,-5.219 -0.015,-0.969 0.266,-2.121 1.207,-2.133 l 0.004,0.227 c -0.343,0.004 -0.554,0.309 -0.539,1.266 0.004,0.433 0.078,1.031 0.364,2.035 l 2.144,-0.035 C 92.254,49.829 92.02,48.958 91.613,48.22 91.242,47.524 90.844,47.028 90.402,47.036 l -0.004,-0.227 c 1.45,-0.023 3.067,2.911 3.106,5.219 z" /><path
       inkscape:connector-curvature="0"
       id="path86"
       style="fill:#000000;fill-opacity:1;fill-rule:nonzero;stroke:none"
       d="m 96.75,48.04 -0.047,-0.008 -0.023,-0.008 -0.02,-0.008 -0.023,-0.004 -0.02,-0.007 -0.019,-0.012 -0.016,-0.008 -0.02,-0.012 -0.015,-0.007 -0.016,-0.012 -0.027,-0.027 -0.016,-0.012 -0.011,-0.016 -0.012,-0.012 -0.024,-0.031 -0.007,-0.011 -0.032,-0.063 -0.004,-0.016 -0.007,-0.015 -0.012,-0.047 0,-0.016 -0.004,-0.015 0,-0.032 c -0.004,-0.195 0.148,-0.265 0.277,-0.269 0.157,0 0.41,0.109 0.418,0.453 0.008,0.492 -0.554,0.637 -0.941,0.645 -1.082,0.015 -2.102,-0.961 -2.117,-1.961 -0.012,-0.622 0.41,-1.262 1.312,-1.278 1.219,-0.019 1.801,0.684 1.805,0.785 0,0.043 -0.063,0.125 -0.121,0.125 -0.043,0 -0.059,-0.015 -0.117,-0.074 -0.575,-0.652 -1.418,-0.637 -1.551,-0.637 -0.516,0.008 -0.742,0.364 -0.735,0.813 0.004,0.207 0.122,0.992 0.504,1.484 0.274,0.352 0.657,0.547 1.016,0.539 0.102,0 0.445,-0.019 0.625,-0.226 z" /><path
       inkscape:connector-curvature="0"
       id="path88"
       style="fill:#000000;fill-opacity:1;fill-rule:nonzero;stroke:none"
       d="m 99.555,50.024 0,0.004 0.004,0 0,0.004 0.003,0.004 0,0.008 0.004,0.004 0,0.015 0.004,0.004 0,0.004 0.004,0.012 0,0.008 0.004,0.007 0,0.004 0.004,0.004 0,0.016 0.004,0 0,0.015 c 0,0.04 -0.027,0.102 -0.113,0.106 -0.141,0 -0.743,-0.047 -0.926,-0.063 -0.055,-0.003 -0.156,-0.007 -0.156,-0.16 -0.004,-0.101 0.097,-0.101 0.183,-0.105 0.344,-0.004 0.344,-0.055 0.344,-0.113 0,-0.051 -0.016,-0.094 -0.031,-0.161 l -1.086,-4.062 c -0.035,-0.129 -0.039,-0.141 -0.039,-0.156 0,-0.11 0.086,-0.235 0.246,-0.235 0.078,-0.004 0.215,0.032 0.297,0.18 0.023,0.043 0.09,0.301 0.129,0.453 l 0.175,0.641 c 0.024,0.105 0.102,0.379 0.121,0.484 0.082,0.274 0.082,0.281 0.227,0.512 0.238,0.347 0.605,0.754 1.168,0.742 0.402,-0.004 0.422,-0.34 0.418,-0.512 -0.008,-0.429 -0.332,-1.222 -0.453,-1.527 -0.082,-0.199 -0.11,-0.266 -0.113,-0.391 -0.004,-0.379 0.308,-0.621 0.675,-0.625 0.723,-0.011 1.055,0.973 1.059,1.086 0,0.094 -0.094,0.094 -0.117,0.094 -0.102,0.004 -0.11,-0.039 -0.137,-0.121 -0.176,-0.574 -0.5,-0.863 -0.781,-0.859 -0.153,0.003 -0.18,0.101 -0.176,0.253 0,0.164 0.043,0.258 0.176,0.582 0.09,0.223 0.398,0.981 0.406,1.387 0,0.113 0.008,0.418 -0.258,0.629 -0.121,0.098 -0.328,0.199 -0.668,0.207 -0.527,0.008 -0.914,-0.273 -1.183,-0.578 l 0.582,2.199 z" /><path
       inkscape:connector-curvature="0"
       id="path90"
       style="fill:#000000;fill-opacity:1;fill-rule:nonzero;stroke:none"
       d="m 103.68,46.809 0.246,0 0.035,0.004 0.035,0 0.035,0.004 0.039,0 0.039,0.004 0.082,0.004 0.079,0.008 0.085,0.008 0.086,0.011 0.082,0.012 0.086,0.016 0.039,0.011 0.04,0.008 0.042,0.008 0.079,0.023 0.035,0.012 c 0.539,0.18 0.644,0.524 0.644,0.738 0.008,0.399 -0.386,0.641 -0.883,0.649 l -0.003,-0.199 c 0.316,-0.004 0.582,-0.168 0.578,-0.442 -0.012,-0.699 -1.231,-0.679 -1.539,-0.676 l -0.352,0.004 c 0.309,1.043 1.113,1.118 1.313,1.114 l 0.003,0.199 c -0.863,0.016 -2.046,-0.629 -2.066,-1.863 -0.012,-0.727 0.434,-1.36 1.281,-1.371 1.219,-0.024 1.797,0.679 1.801,0.785 0,0.039 -0.062,0.121 -0.125,0.125 -0.039,0 -0.055,-0.016 -0.117,-0.075 -0.57,-0.652 -1.418,-0.64 -1.543,-0.636 -0.438,0.008 -0.719,0.301 -0.707,0.883 0,0.101 0.004,0.246 0.098,0.64 l 0.453,-0.008 z" /><path
       inkscape:connector-curvature="0"
       id="path92"
       style="fill:#000000;fill-opacity:1;fill-rule:nonzero;stroke:none"
       d="m 107.652,46.555 0.004,0.004 0,0.012 0.004,0.008 0,0.008 0.004,0.004 0,0.007 0.004,0.008 0,0.012 0.004,0.008 0,0.011 0.016,0.047 0.003,0.028 0.012,0.027 0.004,0.027 0.012,0.032 0.015,0.062 0.02,0.067 0.031,0.125 0.008,0.027 0.012,0.031 0.004,0.027 0.011,0.024 0.004,0.027 0.004,0.008 0.004,0.012 0,0.008 0.004,0.011 0.008,0.016 0,0.016 0.004,0.007 0,0.004 0.004,0.004 0,0.004 0.003,0.004 c 0.016,0.063 0.227,0.414 0.465,0.586 0.078,0.055 0.274,0.195 0.586,0.191 0.071,0 0.25,-0.011 0.395,-0.105 -0.235,-0.063 -0.321,-0.266 -0.324,-0.395 0,-0.156 0.121,-0.265 0.285,-0.269 0.164,-0.004 0.406,0.129 0.41,0.433 0.008,0.375 -0.391,0.532 -0.758,0.536 -0.375,0.007 -0.699,-0.137 -1.023,-0.493 -0.121,0.442 -0.563,0.52 -0.735,0.524 -0.265,0.004 -0.449,-0.16 -0.57,-0.356 -0.168,-0.281 -0.274,-0.699 -0.277,-0.734 0,-0.094 0.097,-0.098 0.121,-0.098 0.101,0 0.109,0.024 0.164,0.215 0.113,0.438 0.258,0.774 0.539,0.77 0.187,0 0.234,-0.16 0.23,-0.356 -0.004,-0.136 -0.07,-0.402 -0.125,-0.594 -0.05,-0.195 -0.129,-0.492 -0.168,-0.648 l -0.246,-0.922 c -0.031,-0.09 -0.078,-0.269 -0.078,-0.293 -0.004,-0.16 0.129,-0.23 0.242,-0.234 0.11,0 0.254,0.062 0.313,0.203 0.015,0.047 0.097,0.359 0.148,0.539 l 0.203,0.773 z" /><text
       id="text94"
       transform="scale(1,-1)"
       x="190.04359"
       y="-75.349846"
       style="text-align:center;text-anchor:middle"><tspan
         id="tspan98"
         sodipodi:role="line"
         style="font-size:8.35787201px;font-variant:normal;font-weight:normal;text-align:center;writing-mode:lr-tb;text-anchor:middle;fill:#000000;fill-opacity:1;fill-rule:nonzero;stroke:none;font-family:TeXGyrePagella;-inkscape-font-specification:TeXGyrePagella-Regular"
         x="190.04359"
         y="-75.349846">Antena con</tspan><tspan
         sodipodi:role="line"
         style="font-size:8.35787201px;font-variant:normal;font-weight:normal;text-align:center;writing-mode:lr-tb;text-anchor:middle;fill:#000000;fill-opacity:1;fill-rule:nonzero;stroke:none;font-family:TeXGyrePagella;-inkscape-font-specification:TeXGyrePagella-Regular"
         x="190.04359"
         y="-64.902504"
         id="tspan4284">máximo de señal</tspan></text>
<text
       style="font-size:12px;text-align:center;text-anchor:middle"
       y="-71.399803"
       x="-23.910732"
       transform="matrix(0.5000085,-0.86602049,-0.86602049,-0.5000085,0,0)"
       id="text3096"><tspan
         y="-71.399803"
         x="-23.910732"
         style="font-size:9.92563152px;font-variant:normal;font-weight:normal;text-align:center;writing-mode:lr-tb;text-anchor:middle;fill:#ca181b;fill-opacity:1;fill-rule:nonzero;stroke:none;font-family:Times New Roman;-inkscape-font-specification:TimesNewRomanPSMT"
         sodipodi:role="line"
         id="tspan3098">Máximo</tspan><tspan
         y="-58.992764"
         x="-23.910732"
         style="font-size:9.92563152px;font-variant:normal;font-weight:normal;text-align:center;writing-mode:lr-tb;text-anchor:middle;fill:#ca181b;fill-opacity:1;fill-rule:nonzero;stroke:none;font-family:Times New Roman;-inkscape-font-specification:TimesNewRomanPSMT"
         sodipodi:role="line"
         id="tspan3100">número de</tspan><tspan
         y="-46.585724"
         x="-23.910732"
         style="font-size:9.92563152px;font-variant:normal;font-weight:normal;text-align:center;writing-mode:lr-tb;text-anchor:middle;fill:#ca181b;fill-opacity:1;fill-rule:nonzero;stroke:none;font-family:Times New Roman;-inkscape-font-specification:TimesNewRomanPSMT"
         sodipodi:role="line"
         id="tspan3102">partículas</tspan></text>
<path
       style="fill:none;stroke:#ff0000;stroke-width:2.4000001;stroke-linecap:butt;stroke-linejoin:miter;stroke-miterlimit:4;stroke-opacity:1;stroke-dasharray:none"
       d="m 110.27204,16.465464 c 80.2311,-0.206168 60.01773,31.561848 79.03421,31.613688 19.01648,0.05184 -0.16413,-20.910824 52.68947,-31.613688"
       id="path3104"
       inkscape:connector-curvature="0"
       sodipodi:nodetypes="czc" /><path
       d="M 87.623868,42.515855 143.59517,15.87868"
       style="fill:none;stroke:#00e6f6;stroke-width:0.80000001;stroke-linecap:butt;stroke-linejoin:miter;stroke-miterlimit:4;stroke-opacity:1;stroke-dasharray:2.4, 0.8;stroke-dashoffset:0"
       id="path3876"
       inkscape:connector-curvature="0"
       sodipodi:nodetypes="cc" /><path
       inkscape:connector-curvature="0"
       id="path3878"
       style="fill:none;stroke:#00e6f6;stroke-width:0.80000001;stroke-linecap:butt;stroke-linejoin:miter;stroke-miterlimit:4;stroke-opacity:1;stroke-dasharray:2.4, 0.8;stroke-dashoffset:0"
       d="M 55.835072,97.481382 239.52442,15.700387"
       sodipodi:nodetypes="cc" /><g
       transform="matrix(0.5129217,0,0,0.5129217,76.980917,7.5282379)"
       id="g3886"><path
         inkscape:connector-curvature="0"
         id="path3888"
         style="fill:none;stroke:#000000;stroke-width:0.80000001;stroke-linecap:butt;stroke-linejoin:miter;stroke-miterlimit:4;stroke-opacity:1;stroke-dasharray:none"
         d="m 190.03,16.532 0,20.477" /><path
         inkscape:connector-curvature="0"
         id="path3890"
         style="fill:none;stroke:#000000;stroke-width:0.80000001;stroke-linecap:butt;stroke-linejoin:miter;stroke-miterlimit:4;stroke-opacity:1;stroke-dasharray:none"
         d="m 193.866,36.774 -7.676,0" /><path
         inkscape:connector-curvature="0"
         id="path3892"
         style="fill:none;stroke:#000000;stroke-width:0.80000001;stroke-linecap:butt;stroke-linejoin:miter;stroke-miterlimit:4;stroke-opacity:1;stroke-dasharray:none"
         d="m 195.467,33.575 -10.875,0" /><path
         inkscape:connector-curvature="0"
         id="path3894"
         style="fill:none;stroke:#000000;stroke-width:0.80000001;stroke-linecap:butt;stroke-linejoin:miter;stroke-miterlimit:4;stroke-opacity:1;stroke-dasharray:none"
         d="m 197.065,30.372 -14.074,0" /></g><g
       id="g3896"
       transform="matrix(0.5129217,0,0,0.5129217,60.980917,7.5282379)"><path
         d="m 190.03,16.532 0,20.477"
         style="fill:none;stroke:#000000;stroke-width:0.80000001;stroke-linecap:butt;stroke-linejoin:miter;stroke-miterlimit:4;stroke-opacity:1;stroke-dasharray:none"
         id="path3898"
         inkscape:connector-curvature="0" /><path
         d="m 193.866,36.774 -7.676,0"
         style="fill:none;stroke:#000000;stroke-width:0.80000001;stroke-linecap:butt;stroke-linejoin:miter;stroke-miterlimit:4;stroke-opacity:1;stroke-dasharray:none"
         id="path3900"
         inkscape:connector-curvature="0" /><path
         d="m 195.467,33.575 -10.875,0"
         style="fill:none;stroke:#000000;stroke-width:0.80000001;stroke-linecap:butt;stroke-linejoin:miter;stroke-miterlimit:4;stroke-opacity:1;stroke-dasharray:none"
         id="path3902"
         inkscape:connector-curvature="0" /><path
         d="m 197.065,30.372 -14.074,0"
         style="fill:none;stroke:#000000;stroke-width:0.80000001;stroke-linecap:butt;stroke-linejoin:miter;stroke-miterlimit:4;stroke-opacity:1;stroke-dasharray:none"
         id="path3904"
         inkscape:connector-curvature="0" /></g><g
       transform="matrix(0.5129217,0,0,0.5129217,44.980917,7.5282379)"
       id="g3906"><path
         inkscape:connector-curvature="0"
         id="path3908"
         style="fill:none;stroke:#000000;stroke-width:0.80000001;stroke-linecap:butt;stroke-linejoin:miter;stroke-miterlimit:4;stroke-opacity:1;stroke-dasharray:none"
         d="m 190.03,16.532 0,20.477" /><path
         inkscape:connector-curvature="0"
         id="path3910"
         style="fill:none;stroke:#000000;stroke-width:0.80000001;stroke-linecap:butt;stroke-linejoin:miter;stroke-miterlimit:4;stroke-opacity:1;stroke-dasharray:none"
         d="m 193.866,36.774 -7.676,0" /><path
         inkscape:connector-curvature="0"
         id="path3912"
         style="fill:none;stroke:#000000;stroke-width:0.80000001;stroke-linecap:butt;stroke-linejoin:miter;stroke-miterlimit:4;stroke-opacity:1;stroke-dasharray:none"
         d="m 195.467,33.575 -10.875,0" /><path
         inkscape:connector-curvature="0"
         id="path3914"
         style="fill:none;stroke:#000000;stroke-width:0.80000001;stroke-linecap:butt;stroke-linejoin:miter;stroke-miterlimit:4;stroke-opacity:1;stroke-dasharray:none"
         d="m 197.065,30.372 -14.074,0" /></g><g
       id="g3916"
       transform="matrix(0.5129217,0,0,0.5129217,28.980917,7.5282379)"><path
         d="m 190.03,16.532 0,20.477"
         style="fill:none;stroke:#000000;stroke-width:0.80000001;stroke-linecap:butt;stroke-linejoin:miter;stroke-miterlimit:4;stroke-opacity:1;stroke-dasharray:none"
         id="path3918"
         inkscape:connector-curvature="0" /><path
         d="m 193.866,36.774 -7.676,0"
         style="fill:none;stroke:#000000;stroke-width:0.80000001;stroke-linecap:butt;stroke-linejoin:miter;stroke-miterlimit:4;stroke-opacity:1;stroke-dasharray:none"
         id="path3920"
         inkscape:connector-curvature="0" /><path
         d="m 195.467,33.575 -10.875,0"
         style="fill:none;stroke:#000000;stroke-width:0.80000001;stroke-linecap:butt;stroke-linejoin:miter;stroke-miterlimit:4;stroke-opacity:1;stroke-dasharray:none"
         id="path3922"
         inkscape:connector-curvature="0" /><path
         d="m 197.065,30.372 -14.074,0"
         style="fill:none;stroke:#000000;stroke-width:0.80000001;stroke-linecap:butt;stroke-linejoin:miter;stroke-miterlimit:4;stroke-opacity:1;stroke-dasharray:none"
         id="path3924"
         inkscape:connector-curvature="0" /></g><g
       transform="matrix(0.5129217,0,0,0.5129217,108.98092,7.5282379)"
       id="g3926"><path
         inkscape:connector-curvature="0"
         id="path3928"
         style="fill:none;stroke:#000000;stroke-width:0.80000001;stroke-linecap:butt;stroke-linejoin:miter;stroke-miterlimit:4;stroke-opacity:1;stroke-dasharray:none"
         d="m 190.03,16.532 0,20.477" /><path
         inkscape:connector-curvature="0"
         id="path3930"
         style="fill:none;stroke:#000000;stroke-width:0.80000001;stroke-linecap:butt;stroke-linejoin:miter;stroke-miterlimit:4;stroke-opacity:1;stroke-dasharray:none"
         d="m 193.866,36.774 -7.676,0" /><path
         inkscape:connector-curvature="0"
         id="path3932"
         style="fill:none;stroke:#000000;stroke-width:0.80000001;stroke-linecap:butt;stroke-linejoin:miter;stroke-miterlimit:4;stroke-opacity:1;stroke-dasharray:none"
         d="m 195.467,33.575 -10.875,0" /><path
         inkscape:connector-curvature="0"
         id="path3934"
         style="fill:none;stroke:#000000;stroke-width:0.80000001;stroke-linecap:butt;stroke-linejoin:miter;stroke-miterlimit:4;stroke-opacity:1;stroke-dasharray:none"
         d="m 197.065,30.372 -14.074,0" /></g><g
       id="g3936"
       transform="matrix(0.5129217,0,0,0.5129217,124.98092,7.5282379)"><path
         d="m 190.03,16.532 0,20.477"
         style="fill:none;stroke:#000000;stroke-width:0.80000001;stroke-linecap:butt;stroke-linejoin:miter;stroke-miterlimit:4;stroke-opacity:1;stroke-dasharray:none"
         id="path3938"
         inkscape:connector-curvature="0" /><path
         d="m 193.866,36.774 -7.676,0"
         style="fill:none;stroke:#000000;stroke-width:0.80000001;stroke-linecap:butt;stroke-linejoin:miter;stroke-miterlimit:4;stroke-opacity:1;stroke-dasharray:none"
         id="path3940"
         inkscape:connector-curvature="0" /><path
         d="m 195.467,33.575 -10.875,0"
         style="fill:none;stroke:#000000;stroke-width:0.80000001;stroke-linecap:butt;stroke-linejoin:miter;stroke-miterlimit:4;stroke-opacity:1;stroke-dasharray:none"
         id="path3942"
         inkscape:connector-curvature="0" /><path
         d="m 197.065,30.372 -14.074,0"
         style="fill:none;stroke:#000000;stroke-width:0.80000001;stroke-linecap:butt;stroke-linejoin:miter;stroke-miterlimit:4;stroke-opacity:1;stroke-dasharray:none"
         id="path3944"
         inkscape:connector-curvature="0" /></g><g
       transform="matrix(0.5129217,0,0,0.5129217,140.98092,7.5282379)"
       id="g3946"><path
         inkscape:connector-curvature="0"
         id="path3948"
         style="fill:none;stroke:#000000;stroke-width:0.80000001;stroke-linecap:butt;stroke-linejoin:miter;stroke-miterlimit:4;stroke-opacity:1;stroke-dasharray:none"
         d="m 190.03,16.532 0,20.477" /><path
         inkscape:connector-curvature="0"
         id="path3950"
         style="fill:none;stroke:#000000;stroke-width:0.80000001;stroke-linecap:butt;stroke-linejoin:miter;stroke-miterlimit:4;stroke-opacity:1;stroke-dasharray:none"
         d="m 193.866,36.774 -7.676,0" /><path
         inkscape:connector-curvature="0"
         id="path3952"
         style="fill:none;stroke:#000000;stroke-width:0.80000001;stroke-linecap:butt;stroke-linejoin:miter;stroke-miterlimit:4;stroke-opacity:1;stroke-dasharray:none"
         d="m 195.467,33.575 -10.875,0" /><path
         inkscape:connector-curvature="0"
         id="path3954"
         style="fill:none;stroke:#000000;stroke-width:0.80000001;stroke-linecap:butt;stroke-linejoin:miter;stroke-miterlimit:4;stroke-opacity:1;stroke-dasharray:none"
         d="m 197.065,30.372 -14.074,0" /></g><text
       y="7.4444361"
       x="131.81055"
       transform="scale(1,-1)"
       id="text3066"><tspan
         y="7.4444361"
         x="131.81055"
         style="font-size:8.35787201px;font-variant:normal;font-weight:normal;writing-mode:lr-tb;fill:#000000;fill-opacity:1;fill-rule:nonzero;stroke:none;font-family:TeXGyrePagella;-inkscape-font-specification:TeXGyrePagella-Regular"
         sodipodi:role="line"
         id="tspan3068">Evolución temporal de la lluvia</tspan></text>
<path
       style="fill:none;stroke:#000000;stroke-width:0.80000001px;stroke-linecap:butt;stroke-linejoin:miter;stroke-opacity:1;marker-end:url(#Arrow1Mend)"
       d="m 216.85678,5.122848 -50.76278,0"
       id="path3070"
       inkscape:connector-curvature="0" /><path
       inkscape:connector-curvature="0"
       id="path3072"
       d="M 193.10539,62.405615 191.70825,28.874239"
       style="fill:none;stroke:#000000;stroke-width:0.80000001px;stroke-linecap:butt;stroke-linejoin:miter;stroke-opacity:1;marker-end:url(#Arrow1Mend)"
       sodipodi:nodetypes="cc" /><path
       sodipodi:nodetypes="cc"
       d="M 39.088764,126.62277 103.18092,15.728271"
       style="fill:none;stroke:#000000;stroke-width:0.4;stroke-linecap:butt;stroke-linejoin:miter;stroke-miterlimit:4;stroke-opacity:1;stroke-dasharray:1.2,0.4;stroke-dashoffset:0"
       id="path3073"
       inkscape:connector-curvature="0" /><path
       sodipodi:type="star"
       style="color:#000000;fill:#ff0000;fill-opacity:1;fill-rule:nonzero;stroke:#000000;stroke-width:0.5;stroke-linecap:round;stroke-linejoin:round;stroke-miterlimit:4;stroke-opacity:1;stroke-dasharray:none;stroke-dashoffset:0;marker:none;visibility:visible;display:inline;overflow:visible;enable-background:accumulate"
       id="path3851"
       sodipodi:sides="5"
       sodipodi:cx="89.977318"
       sodipodi:cy="85.856407"
       sodipodi:r1="2.8043919"
       sodipodi:r2="1.4021958"
       sodipodi:arg1="-0.77622411"
       sodipodi:arg2="-0.14790558"
       inkscape:flatsided="false"
       inkscape:rounded="0"
       inkscape:randomized="0"
       d="m 91.978431,83.891678 -0.614227,1.758092 1.10006,1.502674 -1.861851,-0.04088 -1.089191,1.510571 -0.536461,-1.783359 -1.773216,-0.56909 1.5303,-1.061293 -0.0067,-1.862288 1.482239,1.127444 z"
       transform="matrix(0.8,0,0,-0.8,-0.81499873,139.52643)"
       inkscape:transform-center-x="0.14341343"
       inkscape:transform-center-y="0.12770385" /></g></svg>