<?xml version="1.0" encoding="UTF-8" standalone="no"?>
<!-- Created with Inkscape (http://www.inkscape.org/) -->

<svg
   xmlns:dc="http://purl.org/dc/elements/1.1/"
   xmlns:cc="http://creativecommons.org/ns#"
   xmlns:rdf="http://www.w3.org/1999/02/22-rdf-syntax-ns#"
   xmlns:svg="http://www.w3.org/2000/svg"
   xmlns="http://www.w3.org/2000/svg"
   xmlns:sodipodi="http://sodipodi.sourceforge.net/DTD/sodipodi-0.dtd"
   xmlns:inkscape="http://www.inkscape.org/namespaces/inkscape"
   id="svg2"
   version="1.1"
   inkscape:version="0.48.4 r9939"
   width="902.22656"
   height="204.33806"
   xml:space="preserve"
   sodipodi:docname="periodosDGL.svg"><metadata
     id="metadata8"><rdf:RDF><cc:Work
         rdf:about=""><dc:format>image/svg+xml</dc:format><dc:type
           rdf:resource="http://purl.org/dc/dcmitype/StillImage" /><dc:title /></cc:Work></rdf:RDF></metadata><defs
     id="defs6"><marker
       inkscape:stockid="Arrow1Mend"
       orient="auto"
       refY="0.0"
       refX="0.0"
       id="Arrow1Mend"
       style="overflow:visible;"><path
         id="path4299"
         d="M 0.0,0.0 L 5.0,-5.0 L -12.5,0.0 L 5.0,5.0 L 0.0,0.0 z "
         style="fill-rule:evenodd;stroke:#000000;stroke-width:1.0pt;"
         transform="scale(0.4) rotate(180) translate(10,0)" /></marker><clipPath
       clipPathUnits="userSpaceOnUse"
       id="clipPath18"><path
         d="m -14.035,-335.362 780,0 0,540 -780,0 0,-540 z"
         id="path20"
         inkscape:connector-curvature="0" /></clipPath><clipPath
       clipPathUnits="userSpaceOnUse"
       id="clipPath24"><path
         d="M 0,0 652,0 652,162 0,162 0,0 z"
         id="path26"
         inkscape:connector-curvature="0" /></clipPath><pattern
       patternUnits="userSpaceOnUse"
       x="0"
       y="0"
       width="652"
       height="162"
       id="pattern28"><g
         id="g30" /><g
         id="g32"><g
           clip-path="url(#clipPath24)"
           id="g34"><g
             id="g36" /></g></g></pattern><clipPath
       clipPathUnits="userSpaceOnUse"
       id="clipPath44"><path
         d="m -14.035,-335.362 780,0 0,540 -780,0 0,-540 z"
         id="path46"
         inkscape:connector-curvature="0" /></clipPath><clipPath
       clipPathUnits="userSpaceOnUse"
       id="clipPath50"><path
         d="M 0,0 652,0 652,162 0,162 0,0 z"
         id="path52"
         inkscape:connector-curvature="0" /></clipPath><pattern
       patternUnits="userSpaceOnUse"
       x="0"
       y="0"
       width="652"
       height="162"
       id="pattern54"><g
         id="g56" /><g
         id="g58"><g
           clip-path="url(#clipPath50)"
           id="g60"><g
             id="g62" /></g></g></pattern><clipPath
       clipPathUnits="userSpaceOnUse"
       id="clipPath70"><path
         d="m -14.035,-335.362 780,0 0,540 -780,0 0,-540 z"
         id="path72"
         inkscape:connector-curvature="0" /></clipPath><clipPath
       clipPathUnits="userSpaceOnUse"
       id="clipPath76"><path
         d="M 0,0 652,0 652,162 0,162 0,0 z"
         id="path78"
         inkscape:connector-curvature="0" /></clipPath><pattern
       patternUnits="userSpaceOnUse"
       x="0"
       y="0"
       width="652"
       height="162"
       id="pattern80"><g
         id="g82" /><g
         id="g84"><g
           clip-path="url(#clipPath76)"
           id="g86"><g
             id="g88" /></g></g></pattern><clipPath
       clipPathUnits="userSpaceOnUse"
       id="clipPath96"><path
         d="m -14.035,-335.362 780,0 0,540 -780,0 0,-540 z"
         id="path98"
         inkscape:connector-curvature="0" /></clipPath><clipPath
       clipPathUnits="userSpaceOnUse"
       id="clipPath102"><path
         d="M 0,0 652,0 652,162 0,162 0,0 z"
         id="path104"
         inkscape:connector-curvature="0" /></clipPath><pattern
       patternUnits="userSpaceOnUse"
       x="0"
       y="0"
       width="652"
       height="162"
       id="pattern106"><g
         id="g108" /><g
         id="g110"><g
           clip-path="url(#clipPath102)"
           id="g112"><g
             id="g114" /></g></g></pattern><clipPath
       clipPathUnits="userSpaceOnUse"
       id="clipPath122"><path
         d="m -14.035,-335.362 780,0 0,540 -780,0 0,-540 z"
         id="path124"
         inkscape:connector-curvature="0" /></clipPath><clipPath
       clipPathUnits="userSpaceOnUse"
       id="clipPath128"><path
         d="M 0,0 652,0 652,162 0,162 0,0 z"
         id="path130"
         inkscape:connector-curvature="0" /></clipPath><pattern
       patternUnits="userSpaceOnUse"
       x="0"
       y="0"
       width="652"
       height="162"
       id="pattern132"><g
         id="g134" /><g
         id="g136"><g
           clip-path="url(#clipPath128)"
           id="g138"><g
             id="g140" /></g></g></pattern><clipPath
       clipPathUnits="userSpaceOnUse"
       id="clipPath148"><path
         d="m -14.035,-335.362 780,0 0,540 -780,0 0,-540 z"
         id="path150"
         inkscape:connector-curvature="0" /></clipPath><clipPath
       clipPathUnits="userSpaceOnUse"
       id="clipPath154"><path
         d="M 0,0 652,0 652,162 0,162 0,0 z"
         id="path156"
         inkscape:connector-curvature="0" /></clipPath><pattern
       patternUnits="userSpaceOnUse"
       x="0"
       y="0"
       width="652"
       height="162"
       id="pattern158"><g
         id="g160" /><g
         id="g162"><g
           clip-path="url(#clipPath154)"
           id="g164"><g
             id="g166" /></g></g></pattern><clipPath
       clipPathUnits="userSpaceOnUse"
       id="clipPath174"><path
         d="m -14.035,-335.362 780,0 0,540 -780,0 0,-540 z"
         id="path176"
         inkscape:connector-curvature="0" /></clipPath><clipPath
       clipPathUnits="userSpaceOnUse"
       id="clipPath180"><path
         d="M 0,0 652,0 652,162 0,162 0,0 z"
         id="path182"
         inkscape:connector-curvature="0" /></clipPath><pattern
       patternUnits="userSpaceOnUse"
       x="0"
       y="0"
       width="652"
       height="162"
       id="pattern184"><g
         id="g186" /><g
         id="g188"><g
           clip-path="url(#clipPath180)"
           id="g190"><g
             id="g192" /></g></g></pattern><clipPath
       clipPathUnits="userSpaceOnUse"
       id="clipPath200"><path
         d="m -14.035,-335.362 780,0 0,540 -780,0 0,-540 z"
         id="path202"
         inkscape:connector-curvature="0" /></clipPath><clipPath
       clipPathUnits="userSpaceOnUse"
       id="clipPath206"><path
         d="M 0,0 652,0 652,162 0,162 0,0 z"
         id="path208"
         inkscape:connector-curvature="0" /></clipPath><pattern
       patternUnits="userSpaceOnUse"
       x="0"
       y="0"
       width="652"
       height="162"
       id="pattern210"><g
         id="g212" /><g
         id="g214"><g
           clip-path="url(#clipPath206)"
           id="g216"><g
             id="g218" /></g></g></pattern><clipPath
       clipPathUnits="userSpaceOnUse"
       id="clipPath226"><path
         d="m -14.035,-335.362 780,0 0,540 -780,0 0,-540 z"
         id="path228"
         inkscape:connector-curvature="0" /></clipPath><clipPath
       clipPathUnits="userSpaceOnUse"
       id="clipPath232"><path
         d="M 0,0 652,0 652,162 0,162 0,0 z"
         id="path234"
         inkscape:connector-curvature="0" /></clipPath><pattern
       patternUnits="userSpaceOnUse"
       x="0"
       y="0"
       width="652"
       height="162"
       id="pattern236"><g
         id="g238" /><g
         id="g240"><g
           clip-path="url(#clipPath232)"
           id="g242"><g
             id="g244" /></g></g></pattern><clipPath
       clipPathUnits="userSpaceOnUse"
       id="clipPath252"><path
         d="m -14.035,-335.362 780,0 0,540 -780,0 0,-540 z"
         id="path254"
         inkscape:connector-curvature="0" /></clipPath><clipPath
       clipPathUnits="userSpaceOnUse"
       id="clipPath258"><path
         d="M 0,0 652,0 652,162 0,162 0,0 z"
         id="path260"
         inkscape:connector-curvature="0" /></clipPath><pattern
       patternUnits="userSpaceOnUse"
       x="0"
       y="0"
       width="652"
       height="162"
       id="pattern262"><g
         id="g264" /><g
         id="g266"><g
           clip-path="url(#clipPath258)"
           id="g268"><g
             id="g270" /></g></g></pattern><clipPath
       clipPathUnits="userSpaceOnUse"
       id="clipPath278"><path
         d="m -14.035,-335.362 780,0 0,540 -780,0 0,-540 z"
         id="path280"
         inkscape:connector-curvature="0" /></clipPath><clipPath
       clipPathUnits="userSpaceOnUse"
       id="clipPath284"><path
         d="M 0,0 652,0 652,162 0,162 0,0 z"
         id="path286"
         inkscape:connector-curvature="0" /></clipPath><pattern
       patternUnits="userSpaceOnUse"
       x="0"
       y="0"
       width="652"
       height="162"
       id="pattern288"><g
         id="g290" /><g
         id="g292"><g
           clip-path="url(#clipPath284)"
           id="g294"><g
             id="g296" /></g></g></pattern><clipPath
       clipPathUnits="userSpaceOnUse"
       id="clipPath304"><path
         d="m -14.035,-335.362 780,0 0,540 -780,0 0,-540 z"
         id="path306"
         inkscape:connector-curvature="0" /></clipPath><clipPath
       clipPathUnits="userSpaceOnUse"
       id="clipPath310"><path
         d="M 0,0 652,0 652,162 0,162 0,0 z"
         id="path312"
         inkscape:connector-curvature="0" /></clipPath><pattern
       patternUnits="userSpaceOnUse"
       x="0"
       y="0"
       width="652"
       height="162"
       id="pattern314"><g
         id="g316" /><g
         id="g318"><g
           clip-path="url(#clipPath310)"
           id="g320"><g
             id="g322" /></g></g></pattern><clipPath
       clipPathUnits="userSpaceOnUse"
       id="clipPath330"><path
         d="m -14.035,-335.362 780,0 0,540 -780,0 0,-540 z"
         id="path332"
         inkscape:connector-curvature="0" /></clipPath><clipPath
       clipPathUnits="userSpaceOnUse"
       id="clipPath336"><path
         d="M 0,0 652,0 652,162 0,162 0,0 z"
         id="path338"
         inkscape:connector-curvature="0" /></clipPath><pattern
       patternUnits="userSpaceOnUse"
       x="0"
       y="0"
       width="652"
       height="162"
       id="pattern340"><g
         id="g342" /><g
         id="g344"><g
           clip-path="url(#clipPath336)"
           id="g346"><g
             id="g348" /></g></g></pattern><clipPath
       clipPathUnits="userSpaceOnUse"
       id="clipPath356"><path
         d="m -14.035,-335.362 780,0 0,540 -780,0 0,-540 z"
         id="path358"
         inkscape:connector-curvature="0" /></clipPath><clipPath
       clipPathUnits="userSpaceOnUse"
       id="clipPath362"><path
         d="M 0,0 652,0 652,162 0,162 0,0 z"
         id="path364"
         inkscape:connector-curvature="0" /></clipPath><pattern
       patternUnits="userSpaceOnUse"
       x="0"
       y="0"
       width="652"
       height="162"
       id="pattern366"><g
         id="g368" /><g
         id="g370"><g
           clip-path="url(#clipPath362)"
           id="g372"><g
             id="g374" /></g></g></pattern><clipPath
       clipPathUnits="userSpaceOnUse"
       id="clipPath382"><path
         d="m -14.035,-335.362 780,0 0,540 -780,0 0,-540 z"
         id="path384"
         inkscape:connector-curvature="0" /></clipPath><clipPath
       clipPathUnits="userSpaceOnUse"
       id="clipPath388"><path
         d="M 0,0 652,0 652,162 0,162 0,0 z"
         id="path390"
         inkscape:connector-curvature="0" /></clipPath><pattern
       patternUnits="userSpaceOnUse"
       x="0"
       y="0"
       width="652"
       height="162"
       id="pattern392"><g
         id="g394" /><g
         id="g396"><g
           clip-path="url(#clipPath388)"
           id="g398"><g
             id="g400" /></g></g></pattern></defs><sodipodi:namedview
     pagecolor="#ffffff"
     bordercolor="#666666"
     borderopacity="1"
     objecttolerance="10"
     gridtolerance="10"
     guidetolerance="10"
     inkscape:pageopacity="0"
     inkscape:pageshadow="2"
     inkscape:window-width="1280"
     inkscape:window-height="724"
     id="namedview4"
     showgrid="false"
     inkscape:zoom="0.66000087"
     inkscape:cx="480.21055"
     inkscape:cy="236.28932"
     inkscape:window-x="0"
     inkscape:window-y="24"
     inkscape:window-maximized="1"
     inkscape:current-layer="g10"
     fit-margin-top="0"
     fit-margin-left="0"
     fit-margin-right="0"
     fit-margin-bottom="0" /><g
     id="g10"
     inkscape:groupmode="layer"
     inkscape:label="periodosDGL"
     transform="matrix(1.25,0,0,-1.25,0,202.22769)"><path
       sodipodi:nodetypes="ccccc"
       d="m 0.934,100.474 576.355,0 0,-13.696 -576.355,0 z"
       style="fill:#f10013;fill-opacity:1;fill-rule:nonzero;stroke:none"
       id="path3495"
       inkscape:connector-curvature="0" /><g
       id="g12" /><g
       id="g14"><g
         id="g16"
         clip-path="url(#clipPath18)"><g
           id="g22"><path
             d="m 0,0 651.39447,0 0,161.63373 L 0,161.63373 0,0 z"
             style="fill:url(#pattern28);fill-opacity:1;fill-rule:nonzero;stroke:none"
             id="path38"
             inkscape:connector-curvature="0" /></g></g></g><g
       id="g40"><g
         id="g42"
         clip-path="url(#clipPath44)"><g
           id="g48"><path
             d="m 0,0 651.39447,0 0,161.63373 L 0,161.63373 0,0 z"
             style="fill:url(#pattern54);fill-opacity:1;fill-rule:nonzero;stroke:none"
             id="path64"
             inkscape:connector-curvature="0" /></g></g></g><g
       id="g66"><g
         id="g68"
         clip-path="url(#clipPath70)"><g
           id="g74"><path
             d="m 0,0 651.39447,0 0,161.63373 L 0,161.63373 0,0 z"
             style="fill:url(#pattern80);fill-opacity:1;fill-rule:nonzero;stroke:none"
             id="path90"
             inkscape:connector-curvature="0" /></g></g></g><g
       id="g92"><g
         id="g94"
         clip-path="url(#clipPath96)"><g
           id="g100"><path
             d="m 0,0 651.39447,0 0,161.63373 L 0,161.63373 0,0 z"
             style="fill:url(#pattern106);fill-opacity:1;fill-rule:nonzero;stroke:none"
             id="path116"
             inkscape:connector-curvature="0" /></g></g></g><g
       id="g118"><g
         id="g120"
         clip-path="url(#clipPath122)"><g
           id="g126"><path
             d="m 0,0 651.39447,0 0,161.63373 L 0,161.63373 0,0 z"
             style="fill:url(#pattern132);fill-opacity:1;fill-rule:nonzero;stroke:none"
             id="path142"
             inkscape:connector-curvature="0" /></g></g></g><g
       id="g144"><g
         id="g146"
         clip-path="url(#clipPath148)"><g
           id="g152"><path
             d="m 0,0 651.39447,0 0,161.63373 L 0,161.63373 0,0 z"
             style="fill:url(#pattern158);fill-opacity:1;fill-rule:nonzero;stroke:none"
             id="path168"
             inkscape:connector-curvature="0" /></g></g></g><g
       id="g170"><g
         id="g172"
         clip-path="url(#clipPath174)"><g
           id="g178"><path
             d="m 0,0 651.39447,0 0,161.63373 L 0,161.63373 0,0 z"
             style="fill:url(#pattern184);fill-opacity:1;fill-rule:nonzero;stroke:none"
             id="path194"
             inkscape:connector-curvature="0" /></g></g></g><g
       id="g196"><g
         id="g198"
         clip-path="url(#clipPath200)"><g
           id="g204"><path
             d="m 0,0 651.39447,0 0,161.63373 L 0,161.63373 0,0 z"
             style="fill:url(#pattern210);fill-opacity:1;fill-rule:nonzero;stroke:none"
             id="path220"
             inkscape:connector-curvature="0" /></g></g></g><g
       id="g222"><g
         id="g224"
         clip-path="url(#clipPath226)"><g
           id="g230"><path
             d="m 0,0 651.39447,0 0,161.63373 L 0,161.63373 0,0 z"
             style="fill:url(#pattern236);fill-opacity:1;fill-rule:nonzero;stroke:none"
             id="path246"
             inkscape:connector-curvature="0" /></g></g></g><g
       id="g248"><g
         id="g250"
         clip-path="url(#clipPath252)"><g
           id="g256"><path
             d="m 0,0 651.39447,0 0,161.63373 L 0,161.63373 0,0 z"
             style="fill:url(#pattern262);fill-opacity:1;fill-rule:nonzero;stroke:none"
             id="path272"
             inkscape:connector-curvature="0" /></g></g></g><g
       id="g274"><g
         id="g276"
         clip-path="url(#clipPath278)"><g
           id="g282"><path
             d="m 0,0 651.39447,0 0,161.63373 L 0,161.63373 0,0 z"
             style="fill:url(#pattern288);fill-opacity:1;fill-rule:nonzero;stroke:none"
             id="path298"
             inkscape:connector-curvature="0" /></g></g></g><g
       id="g300"><g
         id="g302"
         clip-path="url(#clipPath304)"><g
           id="g308"><path
             d="m 0,0 651.39447,0 0,161.63373 L 0,161.63373 0,0 z"
             style="fill:url(#pattern314);fill-opacity:1;fill-rule:nonzero;stroke:none"
             id="path324"
             inkscape:connector-curvature="0" /></g></g></g><g
       id="g326"><g
         id="g328"
         clip-path="url(#clipPath330)"><g
           id="g334"><path
             d="m 0,0 651.39447,0 0,161.63373 L 0,161.63373 0,0 z"
             style="fill:url(#pattern340);fill-opacity:1;fill-rule:nonzero;stroke:none"
             id="path350"
             inkscape:connector-curvature="0" /></g></g></g><g
       id="g352"><g
         id="g354"
         clip-path="url(#clipPath356)"><g
           id="g360"><path
             d="m 0,0 651.39447,0 0,161.63373 L 0,161.63373 0,0 z"
             style="fill:url(#pattern366);fill-opacity:1;fill-rule:nonzero;stroke:none"
             id="path376"
             inkscape:connector-curvature="0" /></g></g></g><path
       inkscape:connector-curvature="0"
       id="path410"
       style="fill:#800080;fill-opacity:1;fill-rule:nonzero;stroke:#ffffff;stroke-width:0.5226;stroke-linecap:butt;stroke-linejoin:miter;stroke-miterlimit:4;stroke-opacity:1;stroke-dasharray:none"
       d="m 578.534,100.474 109.466,0 0,-13.696 -109.466,0 z"
       sodipodi:nodetypes="ccccc" /><path
       inkscape:connector-curvature="0"
       id="path412"
       style="fill:none;stroke:#000000;stroke-width:2.79999995;stroke-linecap:butt;stroke-linejoin:miter;stroke-miterlimit:4;stroke-opacity:1;stroke-dasharray:none"
       d="M 2.566,146.38 C 2.566,84.204 1.414,84.204 1.414,84.204" /><path
       inkscape:connector-curvature="0"
       id="path414"
       style="fill:none;stroke:#000000;stroke-width:2.79999995;stroke-linecap:butt;stroke-linejoin:miter;stroke-miterlimit:4;stroke-opacity:1;stroke-dasharray:none"
       d="m 74.789,145.692 c 0,-62.175 -1.152,-62.175 -1.152,-62.175" /><path
       inkscape:connector-curvature="0"
       id="path416"
       style="fill:none;stroke:#000000;stroke-width:2.79999995;stroke-linecap:butt;stroke-linejoin:miter;stroke-miterlimit:4;stroke-opacity:1;stroke-dasharray:none"
       d="m 147.773,146.634 c 0,-62.176 -1.152,-62.176 -1.152,-62.176" /><path
       inkscape:connector-curvature="0"
       id="path418"
       style="fill:none;stroke:#000000;stroke-width:2.79999995;stroke-linecap:butt;stroke-linejoin:miter;stroke-miterlimit:4;stroke-opacity:1;stroke-dasharray:none"
       d="m 219.086,146.786 c 0,-62.176 -1.152,-62.176 -1.152,-62.176" /><path
       inkscape:connector-curvature="0"
       id="path420"
       style="fill:none;stroke:#000000;stroke-width:2.79999995;stroke-linecap:butt;stroke-linejoin:miter;stroke-miterlimit:4;stroke-opacity:1;stroke-dasharray:none"
       d="m 291.594,146.962 c 0,-62.176 -1.153,-62.176 -1.153,-62.176" /><path
       inkscape:connector-curvature="0"
       id="path422"
       style="fill:none;stroke:#000000;stroke-width:2.79999995;stroke-linecap:butt;stroke-linejoin:miter;stroke-miterlimit:4;stroke-opacity:1;stroke-dasharray:none"
       d="m 361.188,147.548 c 0,-62.176 -1.153,-62.176 -1.153,-62.176" /><path
       inkscape:connector-curvature="0"
       id="path424"
       style="fill:none;stroke:#000000;stroke-width:2.79999995;stroke-linecap:butt;stroke-linejoin:miter;stroke-miterlimit:4;stroke-opacity:1;stroke-dasharray:none"
       d="m 433.996,148.56 c 0,-62.172 -1.152,-62.172 -1.152,-62.172" /><path
       inkscape:connector-curvature="0"
       id="path426"
       style="fill:none;stroke:#000000;stroke-width:2.79999995;stroke-linecap:butt;stroke-linejoin:miter;stroke-miterlimit:4;stroke-opacity:1;stroke-dasharray:none"
       d="m 505.996,148.56 c 0,-62.172 -1.152,-62.172 -1.152,-62.172" /><path
       inkscape:connector-curvature="0"
       id="path428"
       style="fill:none;stroke:#000000;stroke-width:2.79999995;stroke-linecap:butt;stroke-linejoin:miter;stroke-miterlimit:4;stroke-opacity:1;stroke-dasharray:none"
       d="m 579.594,148.56 c 0,-62.172 -1.153,-62.172 -1.153,-62.172" /><text
       id="text430"
       transform="scale(1,-1)"
       x="285.52774"
       y="-54.764603"
       style="text-align:center;text-anchor:middle"><tspan
         id="tspan432"
         sodipodi:role="line"
         style="font-size:19.20000076px;font-variant:normal;font-weight:normal;text-align:center;writing-mode:lr-tb;text-anchor:middle;fill:#ff0000;fill-opacity:1;fill-rule:nonzero;stroke:none;font-family:Arial Black;-inkscape-font-specification:ArialBold"
         x="285.52774"
         y="-54.764603">20% Entrenamiento</tspan><tspan
         sodipodi:role="line"
         style="font-size:19.20000076px;font-variant:normal;font-weight:normal;text-align:center;writing-mode:lr-tb;text-anchor:middle;fill:#ff0000;fill-opacity:1;fill-rule:nonzero;stroke:none;font-family:Arial Black;-inkscape-font-specification:ArialBold"
         x="285.52774"
         y="-30.764599"
         id="tspan4265">80% Búsqueda</tspan></text>
<text
       id="text438"
       transform="scale(1,-1)"
       x="571.47266"
       y="-43.47448"><tspan
         id="tspan440"
         sodipodi:role="line"
         style="font-size:19.20000076px;font-variant:normal;font-weight:normal;writing-mode:lr-tb;fill:#800080;fill-opacity:1;fill-rule:nonzero;stroke:none;font-family:Arial Black;-inkscape-font-specification:ArialBold"
         x="571.47266"
         y="-43.47448">Búsqueda</tspan></text>
<text
       id="text442"
       transform="scale(1,-1)"
       x="20.159754"
       y="-146.81366"><tspan
         id="tspan444"
         sodipodi:role="line"
         y="-146.81366"
         x="20.159754 29.055754 37.967754 46.863754"
         style="font-size:16px;font-variant:normal;font-weight:normal;writing-mode:lr-tb;fill:#000000;fill-opacity:1;fill-rule:nonzero;stroke:none;font-family:Arial Black;-inkscape-font-specification:ArialBold">2004</tspan><tspan
         id="tspan446"
         sodipodi:role="line"
         y="-146.99338"
         x="95.16716 104.06316 112.97516 121.87116 168.75117 177.66316 186.55917 195.47116"
         style="font-size:16px;font-variant:normal;font-weight:normal;writing-mode:lr-tb;fill:#000000;fill-opacity:1;fill-rule:nonzero;stroke:none;font-family:Arial Black;-inkscape-font-specification:ArialBold">20052006</tspan><tspan
         id="tspan448"
         sodipodi:role="line"
         y="-148.59338"
         x="239.16769 248.06369 256.97568 265.87167"
         style="font-size:16px;font-variant:normal;font-weight:normal;writing-mode:lr-tb;fill:#000000;fill-opacity:1;fill-rule:nonzero;stroke:none;font-family:Arial Black;-inkscape-font-specification:ArialBold">2007</tspan><tspan
         id="tspan450"
         sodipodi:role="line"
         y="-148.72821"
         x="309.56766 318.46365 327.37567 336.27167 381.10367 390.01566 398.91165 407.82367"
         style="font-size:16px;font-variant:normal;font-weight:normal;writing-mode:lr-tb;fill:#000000;fill-opacity:1;fill-rule:nonzero;stroke:none;font-family:Arial Black;-inkscape-font-specification:ArialBold">20082009</tspan><tspan
         id="tspan452"
         sodipodi:role="line"
         y="-148.53372"
         x="451.51862 460.41461 469.32663 478.22263"
         style="font-size:16px;font-variant:normal;font-weight:normal;writing-mode:lr-tb;fill:#000000;fill-opacity:1;fill-rule:nonzero;stroke:none;font-family:Arial Black;-inkscape-font-specification:ArialBold">2010</tspan><tspan
         id="tspan454"
         sodipodi:role="line"
         y="-150.13371"
         x="526.00525 534.90125 543.81323 551.84521"
         style="font-size:16px;font-variant:normal;font-weight:normal;writing-mode:lr-tb;fill:#000000;fill-opacity:1;fill-rule:nonzero;stroke:none;font-family:Arial Black;-inkscape-font-specification:ArialBold">2011</tspan><tspan
         id="tspan456"
         sodipodi:role="line"
         y="-149.93925"
         x="594.81628 603.71228 612.62427 621.52026"
         style="font-size:16px;font-variant:normal;font-weight:normal;writing-mode:lr-tb;fill:#000000;fill-opacity:1;fill-rule:nonzero;stroke:none;font-family:Arial Black;-inkscape-font-specification:ArialBold">2012      2013</tspan></text>
<path
       inkscape:connector-curvature="0"
       id="path458"
       style="fill:none;stroke:#000000;stroke-width:2.79999995;stroke-linecap:butt;stroke-linejoin:miter;stroke-miterlimit:4;stroke-opacity:1;stroke-dasharray:none"
       d="m 649.996,146.962 c 0,-62.176 -1.152,-62.176 -1.152,-62.176" /><path
       inkscape:connector-curvature="0"
       id="path466"
       style="fill:none;stroke:#000000;stroke-width:1.46640003;stroke-linecap:butt;stroke-linejoin:miter;stroke-miterlimit:4;stroke-opacity:1;stroke-dasharray:none;marker-end:url(#Arrow1Mend)"
       d="m 518.75954,19.744924 56.23255,61.856838"
       sodipodi:nodetypes="cc" /><text
       id="text472"
       transform="scale(1,-1)"
       x="465.16946"
       y="-4.1070175"><tspan
         id="tspan474"
         sodipodi:role="line"
         style="font-size:16px;font-variant:normal;font-weight:normal;writing-mode:lr-tb;fill:#000000;fill-opacity:1;fill-rule:nonzero;stroke:none;font-family:Arial Black;-inkscape-font-specification:Arial"
         x="465.16946"
         y="-4.1070175">31 Dic 2011</tspan><tspan
         id="tspan476"
         sodipodi:role="line"
         style="font-size:16px;font-variant:normal;font-weight:normal;writing-mode:lr-tb;fill:#000000;fill-opacity:1;fill-rule:nonzero;stroke:none;font-family:Arial Black;-inkscape-font-specification:Arial"
         x="465.16946"
         y="15.892982" /></text>
<path
       d="m 720.396,146.962 c 0,-62.176 -1.152,-62.176 -1.152,-62.176"
       style="fill:none;stroke:#000000;stroke-width:2.79999995;stroke-linecap:butt;stroke-linejoin:miter;stroke-miterlimit:4;stroke-opacity:1;stroke-dasharray:none"
       id="path3493"
       inkscape:connector-curvature="0" /><path
       sodipodi:nodetypes="cc"
       d="m 688,23.381283 0,54.584119"
       style="fill:none;stroke:#000000;stroke-width:1.46640003;stroke-linecap:butt;stroke-linejoin:miter;stroke-miterlimit:4;stroke-opacity:1;stroke-dasharray:none;marker-end:url(#Arrow1Mend)"
       id="path4730"
       inkscape:connector-curvature="0" /><text
       y="-4.11483"
       x="608.24811"
       transform="scale(1,-1)"
       id="text4732"><tspan
         y="-4.11483"
         x="608.24811"
         style="font-size:16px;font-variant:normal;font-weight:normal;writing-mode:lr-tb;fill:#000000;fill-opacity:1;fill-rule:nonzero;stroke:none;font-family:Arial Black;-inkscape-font-specification:Arial"
         sodipodi:role="line"
         id="tspan4734">20 Jun 2013</tspan><tspan
         y="15.88517"
         x="608.24811"
         style="font-size:16px;font-variant:normal;font-weight:normal;writing-mode:lr-tb;fill:#000000;fill-opacity:1;fill-rule:nonzero;stroke:none;font-family:Arial Black;-inkscape-font-specification:Arial"
         sodipodi:role="line"
         id="tspan4736" /></text>
</g></svg>